%TF.GenerationSoftware,KiCad,Pcbnew,10.0.5-1.fc44*%
%TF.CreationDate,2026-08-24T15:36:44-05:00*%
%TF.ProjectId,socketboard,736f636b-6574-4626-9f61-72642e6b6963,rev?*%
%TF.SameCoordinates,Original*%
%TF.FileFunction,Plated,1,2,PTH,Drill*%
%TF.FilePolarity,Positive*%
%FSLAX46Y46*%
G04 Gerber Fmt 4.6, Leading zero omitted, Abs format (unit mm)*
G04 Created by KiCad (PCBNEW 10.0.5-1.fc44) date 2026-08-24 15:36:44*
%MOMM*%
%LPD*%
G01*
G04 APERTURE LIST*
%TA.AperFunction,ViaDrill*%
%ADD10C,0.300000*%
%TD*%
%TA.AperFunction,ComponentDrill*%
%ADD11C,1.000000*%
%TD*%
G04 APERTURE END LIST*
D10*
X43000000Y-75230000D03*
X43750000Y-74250000D03*
X44500000Y-80250000D03*
X44800000Y-65075000D03*
X45000000Y-72500000D03*
X48750000Y-73960000D03*
X48750000Y-79750000D03*
X54346087Y-78408127D03*
X54370541Y-79759459D03*
X54422793Y-83261560D03*
X54566700Y-74183300D03*
X55133948Y-78350002D03*
X55183048Y-80795111D03*
X55764326Y-84814230D03*
X58250000Y-84750000D03*
X59500000Y-75750000D03*
X61250000Y-62250000D03*
D11*
%TO.C,J1*%
X37460000Y-53480000D03*
X37460000Y-56020000D03*
X37460000Y-58560000D03*
X37460000Y-61100000D03*
X37460000Y-63640000D03*
X37460000Y-66180000D03*
X37460000Y-68720000D03*
X37460000Y-71260000D03*
X37460000Y-73800000D03*
X37460000Y-76340000D03*
X37460000Y-78880000D03*
X37460000Y-81420000D03*
X37460000Y-83960000D03*
X37460000Y-86500000D03*
X37460000Y-89040000D03*
X37460000Y-91580000D03*
X37460000Y-94120000D03*
X37460000Y-96660000D03*
X37460000Y-99200000D03*
X37460000Y-101740000D03*
X40000000Y-53480000D03*
X40000000Y-56020000D03*
X40000000Y-58560000D03*
X40000000Y-61100000D03*
X40000000Y-63640000D03*
X40000000Y-66180000D03*
X40000000Y-68720000D03*
X40000000Y-71260000D03*
X40000000Y-73800000D03*
X40000000Y-76340000D03*
X40000000Y-78880000D03*
X40000000Y-81420000D03*
X40000000Y-83960000D03*
X40000000Y-86500000D03*
X40000000Y-89040000D03*
X40000000Y-91580000D03*
X40000000Y-94120000D03*
X40000000Y-96660000D03*
X40000000Y-99200000D03*
X40000000Y-101740000D03*
%TO.C,J2*%
X69127839Y-64000000D03*
X69127839Y-66540000D03*
X69127839Y-69080000D03*
X69127839Y-71620000D03*
X69127839Y-74160000D03*
X69127839Y-76700000D03*
X69127839Y-79240000D03*
%TO.C,J3*%
X69627839Y-99460000D03*
X69627839Y-102000000D03*
X69627839Y-104540000D03*
M02*
