%TF.GenerationSoftware,KiCad,Pcbnew,10.0.5-1.fc44*%
%TF.CreationDate,2026-08-24T15:36:46-05:00*%
%TF.ProjectId,socketboard,736f636b-6574-4626-9f61-72642e6b6963,rev?*%
%TF.SameCoordinates,Original*%
%TF.FileFunction,Copper,L1,Top*%
%TF.FilePolarity,Positive*%
%FSLAX46Y46*%
G04 Gerber Fmt 4.6, Leading zero omitted, Abs format (unit mm)*
G04 Created by KiCad (PCBNEW 10.0.5-1.fc44) date 2026-08-24 15:36:46*
%MOMM*%
%LPD*%
G01*
G04 APERTURE LIST*
G04 Aperture macros list*
%AMRoundRect*
0 Rectangle with rounded corners*
0 $1 Rounding radius*
0 $2 $3 $4 $5 $6 $7 $8 $9 X,Y pos of 4 corners*
0 Add a 4 corners polygon primitive as box body*
4,1,4,$2,$3,$4,$5,$6,$7,$8,$9,$2,$3,0*
0 Add four circle primitives for the rounded corners*
1,1,$1+$1,$2,$3*
1,1,$1+$1,$4,$5*
1,1,$1+$1,$6,$7*
1,1,$1+$1,$8,$9*
0 Add four rect primitives between the rounded corners*
20,1,$1+$1,$2,$3,$4,$5,0*
20,1,$1+$1,$4,$5,$6,$7,0*
20,1,$1+$1,$6,$7,$8,$9,0*
20,1,$1+$1,$8,$9,$2,$3,0*%
G04 Aperture macros list end*
%TA.AperFunction,SMDPad,CuDef*%
%ADD10RoundRect,0.225000X-0.225000X-0.250000X0.225000X-0.250000X0.225000X0.250000X-0.225000X0.250000X0*%
%TD*%
%TA.AperFunction,SMDPad,CuDef*%
%ADD11R,1.397000X0.558800*%
%TD*%
%TA.AperFunction,SMDPad,CuDef*%
%ADD12RoundRect,0.200000X0.200000X0.275000X-0.200000X0.275000X-0.200000X-0.275000X0.200000X-0.275000X0*%
%TD*%
%TA.AperFunction,ComponentPad*%
%ADD13R,1.700000X1.700000*%
%TD*%
%TA.AperFunction,ComponentPad*%
%ADD14C,1.700000*%
%TD*%
%TA.AperFunction,SMDPad,CuDef*%
%ADD15RoundRect,0.200000X-0.200000X-0.275000X0.200000X-0.275000X0.200000X0.275000X-0.200000X0.275000X0*%
%TD*%
%TA.AperFunction,SMDPad,CuDef*%
%ADD16RoundRect,0.225000X-0.225000X0.325000X-0.225000X-0.325000X0.225000X-0.325000X0.225000X0.325000X0*%
%TD*%
%TA.AperFunction,SMDPad,CuDef*%
%ADD17RoundRect,0.225000X0.250000X-0.225000X0.250000X0.225000X-0.250000X0.225000X-0.250000X-0.225000X0*%
%TD*%
%TA.AperFunction,SMDPad,CuDef*%
%ADD18R,0.762000X0.304800*%
%TD*%
%TA.AperFunction,SMDPad,CuDef*%
%ADD19R,1.701800X2.489200*%
%TD*%
%TA.AperFunction,SMDPad,CuDef*%
%ADD20RoundRect,0.225000X0.225000X0.250000X-0.225000X0.250000X-0.225000X-0.250000X0.225000X-0.250000X0*%
%TD*%
%TA.AperFunction,ViaPad*%
%ADD21C,0.600000*%
%TD*%
%TA.AperFunction,Conductor*%
%ADD22C,0.200000*%
%TD*%
%TA.AperFunction,Conductor*%
%ADD23C,0.300000*%
%TD*%
%TA.AperFunction,Conductor*%
%ADD24C,0.250000*%
%TD*%
%TA.AperFunction,Conductor*%
%ADD25C,0.350000*%
%TD*%
G04 APERTURE END LIST*
D10*
%TO.P,C2,1*%
%TO.N,GND*%
X45725000Y-82000000D03*
%TO.P,C2,2*%
%TO.N,3.3V*%
X47275000Y-82000000D03*
%TD*%
D11*
%TO.P,U1,1,TXCAN_1*%
%TO.N,/TXD*%
X52654300Y-80310000D03*
%TO.P,U1,2,RXCAN_2*%
%TO.N,/RXD*%
X52654300Y-79040000D03*
%TO.P,U1,3,CLKO/SOF_3*%
%TO.N,unconnected-(U1-CLKO{slash}SOF-Pad3)*%
X52654300Y-77770000D03*
%TO.P,U1,4,\u002AINT_4*%
%TO.N,/GPIO25*%
X52654300Y-76500000D03*
%TO.P,U1,5,OSC2_5*%
%TO.N,unconnected-(U1-OSC2-Pad5)*%
X52654300Y-75230000D03*
%TO.P,U1,6,OSC1_6*%
%TO.N,/OSC1*%
X52654300Y-73960000D03*
%TO.P,U1,7,VSS_7*%
%TO.N,GND*%
X52654300Y-72690000D03*
%TO.P,U1,8,\u002AINT1/GPIO1_8*%
%TO.N,unconnected-(U1-\u002AINT1{slash}GPIO1-Pad8)*%
X47345700Y-72690000D03*
%TO.P,U1,9,\u002AINT0/GPIO0/XSTBY_9*%
%TO.N,/STBY*%
X47345700Y-73960000D03*
%TO.P,U1,10,SCK_10*%
%TO.N,/GPIO11{slash}SPI0.SCLK*%
X47345700Y-75230000D03*
%TO.P,U1,11,SDI_11*%
%TO.N,/GPIO10{slash}SPI0.MOSI*%
X47345700Y-76500000D03*
%TO.P,U1,12,SDO_12*%
%TO.N,/GPIO9{slash}SPI0.MISO*%
X47345700Y-77770000D03*
%TO.P,U1,13,NCS_13*%
%TO.N,/GPIO8{slash}SPI0.CE0*%
X47345700Y-79040000D03*
%TO.P,U1,14,VDD_14*%
%TO.N,3.3V*%
X47345700Y-80310000D03*
%TD*%
D12*
%TO.P,R2,1*%
%TO.N,/GPIO25*%
X45075000Y-71000000D03*
%TO.P,R2,2*%
%TO.N,3.3V*%
X43425000Y-71000000D03*
%TD*%
D13*
%TO.P,J1,1,Pin_1_1*%
%TO.N,3.3V*%
X40000000Y-53480000D03*
D14*
%TO.P,J1,2,Pin_2_2*%
%TO.N,5V*%
X37460000Y-53480000D03*
%TO.P,J1,3,Pin_3_3*%
%TO.N,unconnected-(J1-Pin_3-Pad3)*%
X40000000Y-56020000D03*
%TO.P,J1,4,Pin_4_4*%
%TO.N,5V*%
X37460000Y-56020000D03*
%TO.P,J1,5,Pin_5_5*%
%TO.N,unconnected-(J1-Pin_5-Pad5)*%
X40000000Y-58560000D03*
%TO.P,J1,6,Pin_6_6*%
%TO.N,GND*%
X37460000Y-58560000D03*
%TO.P,J1,7,Pin_7_7*%
%TO.N,unconnected-(J1-Pin_7-Pad7)*%
X40000000Y-61100000D03*
%TO.P,J1,8,Pin_8_8*%
%TO.N,unconnected-(J1-Pin_8-Pad8)*%
X37460000Y-61100000D03*
%TO.P,J1,9,Pin_9_9*%
%TO.N,GND*%
X40000000Y-63640000D03*
%TO.P,J1,10,Pin_10_10*%
%TO.N,unconnected-(J1-Pin_10-Pad10)*%
X37460000Y-63640000D03*
%TO.P,J1,11,Pin_11_11*%
%TO.N,unconnected-(J1-Pin_11-Pad11)*%
X40000000Y-66180000D03*
%TO.P,J1,12,Pin_12_12*%
%TO.N,unconnected-(J1-Pin_12-Pad12)*%
X37460000Y-66180000D03*
%TO.P,J1,13,Pin_13_13*%
%TO.N,unconnected-(J1-Pin_13-Pad13)*%
X40000000Y-68720000D03*
%TO.P,J1,14,Pin_14_14*%
%TO.N,GND*%
X37460000Y-68720000D03*
%TO.P,J1,15,Pin_15_15*%
%TO.N,unconnected-(J1-Pin_15-Pad15)*%
X40000000Y-71260000D03*
%TO.P,J1,16,Pin_16_16*%
%TO.N,unconnected-(J1-Pin_16-Pad16)*%
X37460000Y-71260000D03*
%TO.P,J1,17,Pin_17_17*%
%TO.N,3.3V*%
X40000000Y-73800000D03*
%TO.P,J1,18,Pin_18_18*%
%TO.N,unconnected-(J1-Pin_18-Pad18)*%
X37460000Y-73800000D03*
%TO.P,J1,19,Pin_19_19*%
%TO.N,/GPIO10{slash}SPI0.MOSI*%
X40000000Y-76340000D03*
%TO.P,J1,20,Pin_20_20*%
%TO.N,GND*%
X37460000Y-76340000D03*
%TO.P,J1,21,Pin_21_21*%
%TO.N,/GPIO9{slash}SPI0.MISO*%
X40000000Y-78880000D03*
%TO.P,J1,22,Pin_22_22*%
%TO.N,/GPIO25*%
X37460000Y-78880000D03*
%TO.P,J1,23,Pin_23_23*%
%TO.N,/GPIO11{slash}SPI0.SCLK*%
X40000000Y-81420000D03*
%TO.P,J1,24,Pin_24_24*%
%TO.N,/GPIO8{slash}SPI0.CE0*%
X37460000Y-81420000D03*
%TO.P,J1,25,Pin_25_25*%
%TO.N,GND*%
X40000000Y-83960000D03*
%TO.P,J1,26,Pin_26_26*%
%TO.N,unconnected-(J1-Pin_26-Pad26)*%
X37460000Y-83960000D03*
%TO.P,J1,27,Pin_27_27*%
%TO.N,unconnected-(J1-Pin_27-Pad27)*%
X40000000Y-86500000D03*
%TO.P,J1,28,Pin_28_28*%
%TO.N,unconnected-(J1-Pin_28-Pad28)*%
X37460000Y-86500000D03*
%TO.P,J1,29,Pin_29_29*%
%TO.N,unconnected-(J1-Pin_29-Pad29)*%
X40000000Y-89040000D03*
%TO.P,J1,30,Pin_30_30*%
%TO.N,GND*%
X37460000Y-89040000D03*
%TO.P,J1,31,Pin_31_31*%
%TO.N,unconnected-(J1-Pin_31-Pad31)*%
X40000000Y-91580000D03*
%TO.P,J1,32,Pin_32_32*%
%TO.N,unconnected-(J1-Pin_32-Pad32)*%
X37460000Y-91580000D03*
%TO.P,J1,33,Pin_33_33*%
%TO.N,unconnected-(J1-Pin_33-Pad33)*%
X40000000Y-94120000D03*
%TO.P,J1,34,Pin_34_34*%
%TO.N,GND*%
X37460000Y-94120000D03*
%TO.P,J1,35,Pin_35_35*%
%TO.N,unconnected-(J1-Pin_35-Pad35)*%
X40000000Y-96660000D03*
%TO.P,J1,36,Pin_36_36*%
%TO.N,unconnected-(J1-Pin_36-Pad36)*%
X37460000Y-96660000D03*
%TO.P,J1,37,Pin_37_37*%
%TO.N,unconnected-(J1-Pin_37-Pad37)*%
X40000000Y-99200000D03*
%TO.P,J1,38,Pin_38_38*%
%TO.N,unconnected-(J1-Pin_38-Pad38)*%
X37460000Y-99200000D03*
%TO.P,J1,39,Pin_39_39*%
%TO.N,GND*%
X40000000Y-101740000D03*
%TO.P,J1,40,Pin_40_40*%
%TO.N,unconnected-(J1-Pin_40-Pad40)*%
X37460000Y-101740000D03*
%TD*%
D15*
%TO.P,R1,1*%
%TO.N,/CANL*%
X61925000Y-78500000D03*
%TO.P,R1,2*%
%TO.N,/CANH*%
X63575000Y-78500000D03*
%TD*%
D16*
%TO.P,Y2,1,~{ST}_1*%
%TO.N,3.3V*%
X49850000Y-63650000D03*
%TO.P,Y2,2,GND_2*%
%TO.N,GND*%
X49850000Y-65350000D03*
%TO.P,Y2,3,OUT_3*%
%TO.N,/OSC1*%
X51150000Y-65350000D03*
%TO.P,Y2,4,Vcc_4*%
%TO.N,3.3V*%
X51150000Y-63650000D03*
%TD*%
D17*
%TO.P,C1,1*%
%TO.N,GND*%
X53000000Y-65525000D03*
%TO.P,C1,2*%
%TO.N,3.3V*%
X53000000Y-63975000D03*
%TD*%
D18*
%TO.P,U2,1,TXD_1*%
%TO.N,/TXD*%
X56905200Y-77050002D03*
%TO.P,U2,2,GND_2*%
%TO.N,GND*%
X56905200Y-77700000D03*
%TO.P,U2,3,VCC_3*%
%TO.N,5V*%
X56905200Y-78350002D03*
%TO.P,U2,4,RXD_4*%
%TO.N,/RXD*%
X56905200Y-79000000D03*
%TO.P,U2,5,VIO_5*%
%TO.N,3.3V*%
X59750000Y-79000000D03*
%TO.P,U2,6,CANL_6*%
%TO.N,/CANL*%
X59750000Y-78350002D03*
%TO.P,U2,7,CANH_7*%
%TO.N,/CANH*%
X59750000Y-77700000D03*
%TO.P,U2,8,STBY_8*%
%TO.N,/STBY*%
X59750000Y-77050002D03*
D19*
%TO.P,U2,9,GND_9*%
%TO.N,GND*%
X58327600Y-78025001D03*
%TD*%
D13*
%TO.P,J3,1,Pin_1_1*%
%TO.N,GND*%
X69627839Y-104540000D03*
D14*
%TO.P,J3,2,Pin_2_2*%
%TO.N,/RX_MCU*%
X69627839Y-102000000D03*
%TO.P,J3,3,Pin_3_3*%
%TO.N,/TX_MCU*%
X69627839Y-99460000D03*
%TD*%
D13*
%TO.P,J2,1,Pin_1_1*%
%TO.N,3.3V*%
X69127839Y-64000000D03*
D14*
%TO.P,J2,2,Pin_2_2*%
%TO.N,GND*%
X69127839Y-66540000D03*
%TO.P,J2,3,Pin_3_3*%
%TO.N,/RX_MCU*%
X69127839Y-69080000D03*
%TO.P,J2,4,Pin_4_4*%
%TO.N,/TX_MCU*%
X69127839Y-71620000D03*
%TO.P,J2,5,Pin_5_5*%
%TO.N,GND*%
X69127839Y-74160000D03*
%TO.P,J2,6,Pin_6_6*%
%TO.N,/CANH*%
X69127839Y-76700000D03*
%TO.P,J2,7,Pin_7_7*%
%TO.N,/CANL*%
X69127839Y-79240000D03*
%TD*%
D15*
%TO.P,R3,1*%
%TO.N,/STBY*%
X49930000Y-82500000D03*
%TO.P,R3,2*%
%TO.N,GND*%
X51580000Y-82500000D03*
%TD*%
D20*
%TO.P,C5,1*%
%TO.N,3.3V*%
X65025000Y-62745000D03*
%TO.P,C5,2*%
%TO.N,GND*%
X63475000Y-62745000D03*
%TD*%
%TO.P,C3,1*%
%TO.N,5V*%
X55775000Y-82000000D03*
%TO.P,C3,2*%
%TO.N,GND*%
X54225000Y-82000000D03*
%TD*%
D17*
%TO.P,C4,1*%
%TO.N,GND*%
X60500000Y-84025000D03*
%TO.P,C4,2*%
%TO.N,3.3V*%
X60500000Y-82475000D03*
%TD*%
D21*
%TO.N,GND*%
X58250000Y-84750000D03*
X44800000Y-65075000D03*
X61250000Y-62250000D03*
X54566700Y-74183300D03*
X54422793Y-83261560D03*
%TO.N,3.3V*%
X43750000Y-74250000D03*
X44500000Y-80250000D03*
%TO.N,/TXD*%
X54346087Y-78408127D03*
X54370541Y-79759459D03*
%TO.N,/GPIO25*%
X45000000Y-72500000D03*
%TO.N,/STBY*%
X59500000Y-75750000D03*
X48750000Y-73960000D03*
%TO.N,/GPIO11{slash}SPI0.SCLK*%
X43000000Y-75230000D03*
%TO.N,/GPIO8{slash}SPI0.CE0*%
X48750000Y-79750000D03*
%TO.N,5V*%
X55133948Y-78350002D03*
X55183048Y-80795111D03*
X55764326Y-84814230D03*
%TD*%
%TO.N,GND*%
D22*
X60500000Y-84025000D02*
X58975000Y-84025000D01*
X58975000Y-84025000D02*
X58250000Y-84750000D01*
%TO.N,3.3V*%
X60500000Y-82475000D02*
X60500000Y-80500000D01*
X60500000Y-80500000D02*
X60375000Y-80625000D01*
%TO.N,GND*%
X49850000Y-65350000D02*
X45075000Y-65350000D01*
X40140000Y-63500000D02*
X40000000Y-63640000D01*
X57577600Y-77194200D02*
X57577600Y-78025001D01*
X45075000Y-65350000D02*
X44800000Y-65075000D01*
X55930499Y-74183300D02*
X54566700Y-74183300D01*
X63475000Y-62745000D02*
X61745000Y-62745000D01*
X43750000Y-82000000D02*
X42270000Y-83480000D01*
X54566700Y-74183300D02*
X53073400Y-72690000D01*
X61745000Y-62745000D02*
X61250000Y-62250000D01*
X53000000Y-65275000D02*
X53000000Y-72344300D01*
X53000000Y-72344300D02*
X52654300Y-72690000D01*
X58327600Y-78025001D02*
X58327600Y-76580401D01*
X51580000Y-82500000D02*
X53725000Y-82500000D01*
X45725000Y-82000000D02*
X43750000Y-82000000D01*
X53725000Y-82500000D02*
X54225000Y-82000000D01*
X54225000Y-82000000D02*
X54225000Y-83063767D01*
X42270000Y-83480000D02*
X40000000Y-83480000D01*
X54225000Y-83063767D02*
X54422793Y-83261560D01*
X58327600Y-76580401D02*
X55930499Y-74183300D01*
X57252599Y-77700000D02*
X57577600Y-78025001D01*
X53073400Y-72690000D02*
X52654300Y-72690000D01*
%TO.N,3.3V*%
X59775000Y-79000000D02*
X60500000Y-79725000D01*
X47345700Y-80310000D02*
X47764800Y-80310000D01*
X67250000Y-64000000D02*
X69127839Y-64000000D01*
X49500000Y-84000000D02*
X47500000Y-82000000D01*
X44500000Y-80250000D02*
X44560000Y-80310000D01*
X43300000Y-73800000D02*
X43750000Y-74250000D01*
X53300000Y-64000000D02*
X67250000Y-64000000D01*
X65995000Y-62745000D02*
X67250000Y-64000000D01*
X51475000Y-63975000D02*
X51150000Y-63650000D01*
X42250000Y-73800000D02*
X43300000Y-73800000D01*
X46385000Y-59865000D02*
X40000000Y-53480000D01*
X49850000Y-63650000D02*
X49850000Y-63330000D01*
X42250000Y-73800000D02*
X42250000Y-73750000D01*
X42250000Y-73750000D02*
X43425000Y-72575000D01*
X53025000Y-63725000D02*
X53300000Y-64000000D01*
X40000000Y-73800000D02*
X42250000Y-73800000D01*
X52925000Y-63650000D02*
X53000000Y-63725000D01*
X43425000Y-72575000D02*
X43425000Y-71000000D01*
X47275000Y-80380700D02*
X47345700Y-80310000D01*
X47500000Y-82000000D02*
X47275000Y-82000000D01*
X60500000Y-80500000D02*
X60500000Y-79725000D01*
X43425000Y-71000000D02*
X43425000Y-62825000D01*
X53000000Y-63725000D02*
X53025000Y-63725000D01*
X49850000Y-63650000D02*
X51150000Y-63650000D01*
X44560000Y-80310000D02*
X47345700Y-80310000D01*
X47275000Y-82000000D02*
X47275000Y-80380700D01*
X65025000Y-62745000D02*
X65995000Y-62745000D01*
X60375000Y-80625000D02*
X57000000Y-84000000D01*
X49850000Y-63330000D02*
X46385000Y-59865000D01*
X43425000Y-62825000D02*
X46385000Y-59865000D01*
X57000000Y-84000000D02*
X49500000Y-84000000D01*
X53000000Y-63975000D02*
X51475000Y-63975000D01*
%TO.N,/TXD*%
X54370541Y-79759459D02*
X53820000Y-80310000D01*
X54346087Y-78408127D02*
X54346087Y-77653913D01*
X54346087Y-77653913D02*
X54949998Y-77050002D01*
X56905200Y-77050002D02*
X54949998Y-77050002D01*
X53820000Y-80310000D02*
X52654300Y-80310000D01*
%TO.N,/RXD*%
X52654300Y-79040000D02*
X56865200Y-79040000D01*
X56865200Y-79040000D02*
X56905200Y-79000000D01*
X52654300Y-79040000D02*
X52235200Y-79040000D01*
%TO.N,/GPIO25*%
X50000000Y-74750000D02*
X51750000Y-76500000D01*
X45000000Y-71075000D02*
X45075000Y-71000000D01*
X50000000Y-72500000D02*
X50000000Y-74750000D01*
X48500000Y-71000000D02*
X50000000Y-72500000D01*
X45000000Y-72500000D02*
X45000000Y-71075000D01*
X45075000Y-71000000D02*
X48500000Y-71000000D01*
X51750000Y-76500000D02*
X52654300Y-76500000D01*
%TO.N,/OSC1*%
X51150000Y-65350000D02*
X51150000Y-73150000D01*
X51960000Y-73960000D02*
X52654300Y-73960000D01*
X51150000Y-73150000D02*
X51960000Y-73960000D01*
%TO.N,/STBY*%
X59750000Y-77050002D02*
X59750000Y-76000000D01*
X48750000Y-74500000D02*
X49930000Y-75680000D01*
X49930000Y-75680000D02*
X49930000Y-82500000D01*
X48750000Y-73960000D02*
X48750000Y-74500000D01*
X59750000Y-76000000D02*
X59500000Y-75750000D01*
X48750000Y-73960000D02*
X47345700Y-73960000D01*
%TO.N,/GPIO11{slash}SPI0.SCLK*%
X47345700Y-75230000D02*
X43000000Y-75230000D01*
%TO.N,/GPIO10{slash}SPI0.MOSI*%
X40640000Y-76500000D02*
X40000000Y-75860000D01*
X47185700Y-76340000D02*
X47345700Y-76500000D01*
X40000000Y-76340000D02*
X47185700Y-76340000D01*
%TO.N,/GPIO9{slash}SPI0.MISO*%
X47345700Y-77770000D02*
X41110000Y-77770000D01*
X40000000Y-78880000D02*
X41110000Y-77770000D01*
%TO.N,/GPIO8{slash}SPI0.CE0*%
X48750000Y-79750000D02*
X48040000Y-79040000D01*
X48040000Y-79040000D02*
X47345700Y-79040000D01*
%TO.N,5V*%
X55775000Y-82000000D02*
X55775000Y-81387063D01*
X37460000Y-55540000D02*
X38745472Y-56825472D01*
X55133948Y-78350002D02*
X55124129Y-78359821D01*
X55133948Y-78350002D02*
X56905200Y-78350002D01*
X55775000Y-81387063D02*
X55183048Y-80795111D01*
X38951102Y-85201102D02*
X55377454Y-85201102D01*
X55377454Y-85201102D02*
X55764326Y-84814230D01*
X38745472Y-84995472D02*
X38951102Y-85201102D01*
X37460000Y-53000000D02*
X37460000Y-55540000D01*
X55679191Y-84729095D02*
X55764326Y-84814230D01*
X38745472Y-56825472D02*
X38745472Y-84995472D01*
%TO.N,/CANL*%
D23*
X69127839Y-79240000D02*
X68137839Y-78250000D01*
D22*
X69102839Y-79265000D02*
X69127839Y-79240000D01*
D24*
X68765599Y-79397760D02*
X68867839Y-79500000D01*
D25*
X68800000Y-79240000D02*
X68790000Y-79250000D01*
D23*
X65250000Y-78250000D02*
X64102240Y-79397760D01*
X64102240Y-79397760D02*
X62822760Y-79397760D01*
D24*
X61672762Y-78247762D02*
X61775002Y-78350002D01*
D23*
X59750000Y-78350002D02*
X61775002Y-78350002D01*
D22*
X61775002Y-78350002D02*
X61925000Y-78500000D01*
D25*
X68867839Y-79500000D02*
X69102839Y-79265000D01*
D23*
X68137839Y-78250000D02*
X65250000Y-78250000D01*
X61925000Y-78500000D02*
X62822760Y-79397760D01*
%TO.N,/CANH*%
X68127839Y-77700000D02*
X69127839Y-76700000D01*
D24*
X68127839Y-77700000D02*
X59750000Y-77700000D01*
D23*
X63575000Y-78500000D02*
X63575000Y-77775000D01*
%TO.N,/RX_MCU*%
D22*
X71400000Y-100227839D02*
X69627839Y-102000000D01*
X69127839Y-69080000D02*
X71400000Y-71352161D01*
X71400000Y-71352161D02*
X71400000Y-100227839D01*
%TO.N,/TX_MCU*%
X69127839Y-71620000D02*
X70830729Y-73322890D01*
X70830729Y-73322890D02*
X70830729Y-98257110D01*
X70830729Y-98257110D02*
X69627839Y-99460000D01*
%TD*%
M02*
