%TF.GenerationSoftware,KiCad,Pcbnew,10.0.5-1.fc44*%
%TF.CreationDate,2026-08-24T15:36:46-05:00*%
%TF.ProjectId,socketboard,736f636b-6574-4626-9f61-72642e6b6963,rev?*%
%TF.SameCoordinates,Original*%
%TF.FileFunction,Soldermask,Bot*%
%TF.FilePolarity,Negative*%
%FSLAX46Y46*%
G04 Gerber Fmt 4.6, Leading zero omitted, Abs format (unit mm)*
G04 Created by KiCad (PCBNEW 10.0.5-1.fc44) date 2026-08-24 15:36:46*
%MOMM*%
%LPD*%
G01*
G04 APERTURE LIST*
%ADD10R,1.700000X1.700000*%
%ADD11C,1.700000*%
G04 APERTURE END LIST*
D10*
%TO.C,J1*%
X40000000Y-53480000D03*
D11*
X37460000Y-53480000D03*
X40000000Y-56020000D03*
X37460000Y-56020000D03*
X40000000Y-58560000D03*
X37460000Y-58560000D03*
X40000000Y-61100000D03*
X37460000Y-61100000D03*
X40000000Y-63640000D03*
X37460000Y-63640000D03*
X40000000Y-66180000D03*
X37460000Y-66180000D03*
X40000000Y-68720000D03*
X37460000Y-68720000D03*
X40000000Y-71260000D03*
X37460000Y-71260000D03*
X40000000Y-73800000D03*
X37460000Y-73800000D03*
X40000000Y-76340000D03*
X37460000Y-76340000D03*
X40000000Y-78880000D03*
X37460000Y-78880000D03*
X40000000Y-81420000D03*
X37460000Y-81420000D03*
X40000000Y-83960000D03*
X37460000Y-83960000D03*
X40000000Y-86500000D03*
X37460000Y-86500000D03*
X40000000Y-89040000D03*
X37460000Y-89040000D03*
X40000000Y-91580000D03*
X37460000Y-91580000D03*
X40000000Y-94120000D03*
X37460000Y-94120000D03*
X40000000Y-96660000D03*
X37460000Y-96660000D03*
X40000000Y-99200000D03*
X37460000Y-99200000D03*
X40000000Y-101740000D03*
X37460000Y-101740000D03*
%TD*%
D10*
%TO.C,J3*%
X69627839Y-104540000D03*
D11*
X69627839Y-102000000D03*
X69627839Y-99460000D03*
%TD*%
D10*
%TO.C,J2*%
X69127839Y-64000000D03*
D11*
X69127839Y-66540000D03*
X69127839Y-69080000D03*
X69127839Y-71620000D03*
X69127839Y-74160000D03*
X69127839Y-76700000D03*
X69127839Y-79240000D03*
%TD*%
M02*
