%TF.GenerationSoftware,KiCad,Pcbnew,10.0.5-1.fc44*%
%TF.CreationDate,2026-08-24T15:36:46-05:00*%
%TF.ProjectId,socketboard,736f636b-6574-4626-9f61-72642e6b6963,rev?*%
%TF.SameCoordinates,Original*%
%TF.FileFunction,Copper,L2,Bot*%
%TF.FilePolarity,Positive*%
%FSLAX46Y46*%
G04 Gerber Fmt 4.6, Leading zero omitted, Abs format (unit mm)*
G04 Created by KiCad (PCBNEW 10.0.5-1.fc44) date 2026-08-24 15:36:46*
%MOMM*%
%LPD*%
G01*
G04 APERTURE LIST*
%TA.AperFunction,ComponentPad*%
%ADD10R,1.700000X1.700000*%
%TD*%
%TA.AperFunction,ComponentPad*%
%ADD11C,1.700000*%
%TD*%
%TA.AperFunction,ViaPad*%
%ADD12C,0.600000*%
%TD*%
%TA.AperFunction,Conductor*%
%ADD13C,0.200000*%
%TD*%
G04 APERTURE END LIST*
D10*
%TO.P,J1,1,Pin_1_1*%
%TO.N,3.3V*%
X40000000Y-53480000D03*
D11*
%TO.P,J1,2,Pin_2_2*%
%TO.N,5V*%
X37460000Y-53480000D03*
%TO.P,J1,3,Pin_3_3*%
%TO.N,unconnected-(J1-Pin_3-Pad3)*%
X40000000Y-56020000D03*
%TO.P,J1,4,Pin_4_4*%
%TO.N,5V*%
X37460000Y-56020000D03*
%TO.P,J1,5,Pin_5_5*%
%TO.N,unconnected-(J1-Pin_5-Pad5)*%
X40000000Y-58560000D03*
%TO.P,J1,6,Pin_6_6*%
%TO.N,GND*%
X37460000Y-58560000D03*
%TO.P,J1,7,Pin_7_7*%
%TO.N,unconnected-(J1-Pin_7-Pad7)*%
X40000000Y-61100000D03*
%TO.P,J1,8,Pin_8_8*%
%TO.N,unconnected-(J1-Pin_8-Pad8)*%
X37460000Y-61100000D03*
%TO.P,J1,9,Pin_9_9*%
%TO.N,GND*%
X40000000Y-63640000D03*
%TO.P,J1,10,Pin_10_10*%
%TO.N,unconnected-(J1-Pin_10-Pad10)*%
X37460000Y-63640000D03*
%TO.P,J1,11,Pin_11_11*%
%TO.N,unconnected-(J1-Pin_11-Pad11)*%
X40000000Y-66180000D03*
%TO.P,J1,12,Pin_12_12*%
%TO.N,unconnected-(J1-Pin_12-Pad12)*%
X37460000Y-66180000D03*
%TO.P,J1,13,Pin_13_13*%
%TO.N,unconnected-(J1-Pin_13-Pad13)*%
X40000000Y-68720000D03*
%TO.P,J1,14,Pin_14_14*%
%TO.N,GND*%
X37460000Y-68720000D03*
%TO.P,J1,15,Pin_15_15*%
%TO.N,unconnected-(J1-Pin_15-Pad15)*%
X40000000Y-71260000D03*
%TO.P,J1,16,Pin_16_16*%
%TO.N,unconnected-(J1-Pin_16-Pad16)*%
X37460000Y-71260000D03*
%TO.P,J1,17,Pin_17_17*%
%TO.N,3.3V*%
X40000000Y-73800000D03*
%TO.P,J1,18,Pin_18_18*%
%TO.N,unconnected-(J1-Pin_18-Pad18)*%
X37460000Y-73800000D03*
%TO.P,J1,19,Pin_19_19*%
%TO.N,/GPIO10{slash}SPI0.MOSI*%
X40000000Y-76340000D03*
%TO.P,J1,20,Pin_20_20*%
%TO.N,GND*%
X37460000Y-76340000D03*
%TO.P,J1,21,Pin_21_21*%
%TO.N,/GPIO9{slash}SPI0.MISO*%
X40000000Y-78880000D03*
%TO.P,J1,22,Pin_22_22*%
%TO.N,/GPIO25*%
X37460000Y-78880000D03*
%TO.P,J1,23,Pin_23_23*%
%TO.N,/GPIO11{slash}SPI0.SCLK*%
X40000000Y-81420000D03*
%TO.P,J1,24,Pin_24_24*%
%TO.N,/GPIO8{slash}SPI0.CE0*%
X37460000Y-81420000D03*
%TO.P,J1,25,Pin_25_25*%
%TO.N,GND*%
X40000000Y-83960000D03*
%TO.P,J1,26,Pin_26_26*%
%TO.N,unconnected-(J1-Pin_26-Pad26)*%
X37460000Y-83960000D03*
%TO.P,J1,27,Pin_27_27*%
%TO.N,unconnected-(J1-Pin_27-Pad27)*%
X40000000Y-86500000D03*
%TO.P,J1,28,Pin_28_28*%
%TO.N,unconnected-(J1-Pin_28-Pad28)*%
X37460000Y-86500000D03*
%TO.P,J1,29,Pin_29_29*%
%TO.N,unconnected-(J1-Pin_29-Pad29)*%
X40000000Y-89040000D03*
%TO.P,J1,30,Pin_30_30*%
%TO.N,GND*%
X37460000Y-89040000D03*
%TO.P,J1,31,Pin_31_31*%
%TO.N,unconnected-(J1-Pin_31-Pad31)*%
X40000000Y-91580000D03*
%TO.P,J1,32,Pin_32_32*%
%TO.N,unconnected-(J1-Pin_32-Pad32)*%
X37460000Y-91580000D03*
%TO.P,J1,33,Pin_33_33*%
%TO.N,unconnected-(J1-Pin_33-Pad33)*%
X40000000Y-94120000D03*
%TO.P,J1,34,Pin_34_34*%
%TO.N,GND*%
X37460000Y-94120000D03*
%TO.P,J1,35,Pin_35_35*%
%TO.N,unconnected-(J1-Pin_35-Pad35)*%
X40000000Y-96660000D03*
%TO.P,J1,36,Pin_36_36*%
%TO.N,unconnected-(J1-Pin_36-Pad36)*%
X37460000Y-96660000D03*
%TO.P,J1,37,Pin_37_37*%
%TO.N,unconnected-(J1-Pin_37-Pad37)*%
X40000000Y-99200000D03*
%TO.P,J1,38,Pin_38_38*%
%TO.N,unconnected-(J1-Pin_38-Pad38)*%
X37460000Y-99200000D03*
%TO.P,J1,39,Pin_39_39*%
%TO.N,GND*%
X40000000Y-101740000D03*
%TO.P,J1,40,Pin_40_40*%
%TO.N,unconnected-(J1-Pin_40-Pad40)*%
X37460000Y-101740000D03*
%TD*%
D10*
%TO.P,J3,1,Pin_1_1*%
%TO.N,GND*%
X69627839Y-104540000D03*
D11*
%TO.P,J3,2,Pin_2_2*%
%TO.N,/RX_MCU*%
X69627839Y-102000000D03*
%TO.P,J3,3,Pin_3_3*%
%TO.N,/TX_MCU*%
X69627839Y-99460000D03*
%TD*%
D10*
%TO.P,J2,1,Pin_1_1*%
%TO.N,3.3V*%
X69127839Y-64000000D03*
D11*
%TO.P,J2,2,Pin_2_2*%
%TO.N,GND*%
X69127839Y-66540000D03*
%TO.P,J2,3,Pin_3_3*%
%TO.N,/RX_MCU*%
X69127839Y-69080000D03*
%TO.P,J2,4,Pin_4_4*%
%TO.N,/TX_MCU*%
X69127839Y-71620000D03*
%TO.P,J2,5,Pin_5_5*%
%TO.N,GND*%
X69127839Y-74160000D03*
%TO.P,J2,6,Pin_6_6*%
%TO.N,/CANH*%
X69127839Y-76700000D03*
%TO.P,J2,7,Pin_7_7*%
%TO.N,/CANL*%
X69127839Y-79240000D03*
%TD*%
D12*
%TO.N,GND*%
X58250000Y-84750000D03*
X44800000Y-65075000D03*
X61250000Y-62250000D03*
X54566700Y-74183300D03*
X54422793Y-83261560D03*
%TO.N,3.3V*%
X43750000Y-74250000D03*
X44500000Y-80250000D03*
%TO.N,/TXD*%
X54346087Y-78408127D03*
X54370541Y-79759459D03*
%TO.N,/GPIO25*%
X45000000Y-72500000D03*
%TO.N,/STBY*%
X59500000Y-75750000D03*
X48750000Y-73960000D03*
%TO.N,/GPIO11{slash}SPI0.SCLK*%
X43000000Y-75230000D03*
%TO.N,/GPIO8{slash}SPI0.CE0*%
X48750000Y-79750000D03*
%TO.N,5V*%
X55133948Y-78350002D03*
X55183048Y-80795111D03*
X55764326Y-84814230D03*
%TD*%
%TO.N,GND*%
D13*
X44800000Y-64800000D02*
X44800000Y-65075000D01*
X40000000Y-63640000D02*
X43640000Y-63640000D01*
X43640000Y-63640000D02*
X44800000Y-64800000D01*
%TO.N,3.3V*%
X43750000Y-74250000D02*
X43750000Y-79500000D01*
X43750000Y-79500000D02*
X44500000Y-80250000D01*
%TO.N,/TXD*%
X54370541Y-79759459D02*
X54370541Y-78432581D01*
X54370541Y-78432581D02*
X54346087Y-78408127D01*
%TO.N,/GPIO25*%
X39219937Y-72500000D02*
X45000000Y-72500000D01*
X44874419Y-72625581D02*
X45000000Y-72500000D01*
X37460000Y-78880000D02*
X38784661Y-77555339D01*
X38784661Y-77555339D02*
X38784661Y-72935276D01*
X38784661Y-72935276D02*
X39219937Y-72500000D01*
%TO.N,/STBY*%
X59250000Y-75500000D02*
X59500000Y-75750000D01*
X51250000Y-75500000D02*
X59250000Y-75500000D01*
X48750000Y-73960000D02*
X49710000Y-73960000D01*
X49710000Y-73960000D02*
X51250000Y-75500000D01*
%TO.N,/GPIO11{slash}SPI0.SCLK*%
X43000000Y-78420000D02*
X40000000Y-81420000D01*
X43000000Y-75230000D02*
X43000000Y-78420000D01*
%TO.N,/GPIO8{slash}SPI0.CE0*%
X47072149Y-82677851D02*
X38717851Y-82677851D01*
X48750000Y-79750000D02*
X48750000Y-81000000D01*
X38717851Y-82677851D02*
X37460000Y-81420000D01*
X48750000Y-81000000D02*
X47072149Y-82677851D01*
%TO.N,5V*%
X55764326Y-84814230D02*
X55764326Y-81376389D01*
X55764326Y-81376389D02*
X55183048Y-80795111D01*
X55133948Y-78350002D02*
X55183048Y-78399102D01*
X55183048Y-78399102D02*
X55183048Y-80795111D01*
%TD*%
%TA.AperFunction,Conductor*%
%TO.N,GND*%
G36*
X38773334Y-100323340D02*
G01*
X38817681Y-100351841D01*
X38924771Y-100458931D01*
X39134949Y-100611634D01*
X39301437Y-100696464D01*
X39332820Y-100719266D01*
X39870591Y-101257037D01*
X39807007Y-101274075D01*
X39692993Y-101339901D01*
X39599901Y-101432993D01*
X39534075Y-101547007D01*
X39517037Y-101610591D01*
X38979266Y-101072820D01*
X38956464Y-101041437D01*
X38871634Y-100874949D01*
X38718931Y-100664771D01*
X38611841Y-100557681D01*
X38578356Y-100496358D01*
X38583340Y-100426666D01*
X38611841Y-100382319D01*
X38642319Y-100351841D01*
X38703642Y-100318356D01*
X38773334Y-100323340D01*
G37*
%TD.AperFunction*%
%TA.AperFunction,Conductor*%
G36*
X38480732Y-94787178D02*
G01*
X38503536Y-94818564D01*
X38588368Y-94985054D01*
X38741066Y-95195225D01*
X38741071Y-95195231D01*
X38848159Y-95302319D01*
X38881644Y-95363642D01*
X38876660Y-95433334D01*
X38848159Y-95477681D01*
X38817681Y-95508159D01*
X38756358Y-95541644D01*
X38686666Y-95536660D01*
X38642319Y-95508159D01*
X38535231Y-95401071D01*
X38535225Y-95401066D01*
X38325054Y-95248368D01*
X38325053Y-95248367D01*
X38325051Y-95248366D01*
X38158564Y-95163536D01*
X38127178Y-95140732D01*
X37589409Y-94602962D01*
X37652993Y-94585925D01*
X37767007Y-94520099D01*
X37860099Y-94427007D01*
X37925925Y-94312993D01*
X37942962Y-94249408D01*
X38480732Y-94787178D01*
G37*
%TD.AperFunction*%
%TA.AperFunction,Conductor*%
G36*
X38773334Y-92703340D02*
G01*
X38817680Y-92731840D01*
X38848159Y-92762319D01*
X38848160Y-92762320D01*
X38881644Y-92823644D01*
X38876658Y-92893335D01*
X38848159Y-92937681D01*
X38741066Y-93044774D01*
X38588366Y-93254947D01*
X38503535Y-93421435D01*
X38480732Y-93452820D01*
X37942962Y-93990590D01*
X37925925Y-93927007D01*
X37860099Y-93812993D01*
X37767007Y-93719901D01*
X37652993Y-93654075D01*
X37589409Y-93637037D01*
X38127178Y-93099266D01*
X38158559Y-93076466D01*
X38325051Y-92991634D01*
X38535229Y-92838931D01*
X38642319Y-92731841D01*
X38703642Y-92698356D01*
X38773334Y-92703340D01*
G37*
%TD.AperFunction*%
%TA.AperFunction,Conductor*%
G36*
X38480732Y-89707178D02*
G01*
X38503536Y-89738564D01*
X38588368Y-89905054D01*
X38741066Y-90115225D01*
X38741071Y-90115231D01*
X38848159Y-90222319D01*
X38881644Y-90283642D01*
X38876660Y-90353334D01*
X38848159Y-90397681D01*
X38817681Y-90428159D01*
X38756358Y-90461644D01*
X38686666Y-90456660D01*
X38642319Y-90428159D01*
X38535231Y-90321071D01*
X38535225Y-90321066D01*
X38325054Y-90168368D01*
X38325053Y-90168367D01*
X38325051Y-90168366D01*
X38158564Y-90083536D01*
X38127178Y-90060732D01*
X37589409Y-89522962D01*
X37652993Y-89505925D01*
X37767007Y-89440099D01*
X37860099Y-89347007D01*
X37925925Y-89232993D01*
X37942962Y-89169408D01*
X38480732Y-89707178D01*
G37*
%TD.AperFunction*%
%TA.AperFunction,Conductor*%
G36*
X38773334Y-87623340D02*
G01*
X38817680Y-87651840D01*
X38848159Y-87682319D01*
X38848160Y-87682320D01*
X38881644Y-87743644D01*
X38876658Y-87813335D01*
X38848159Y-87857681D01*
X38741066Y-87964774D01*
X38588366Y-88174947D01*
X38503535Y-88341435D01*
X38480732Y-88372820D01*
X37942962Y-88910590D01*
X37925925Y-88847007D01*
X37860099Y-88732993D01*
X37767007Y-88639901D01*
X37652993Y-88574075D01*
X37589409Y-88557037D01*
X38127178Y-88019266D01*
X38158559Y-87996466D01*
X38325051Y-87911634D01*
X38535229Y-87758931D01*
X38642319Y-87651841D01*
X38703642Y-87618356D01*
X38773334Y-87623340D01*
G37*
%TD.AperFunction*%
%TA.AperFunction,Conductor*%
G36*
X39534075Y-84152993D02*
G01*
X39599901Y-84267007D01*
X39692993Y-84360099D01*
X39807007Y-84425925D01*
X39870590Y-84442962D01*
X39332820Y-84980732D01*
X39301435Y-85003535D01*
X39134947Y-85088366D01*
X38924774Y-85241066D01*
X38817681Y-85348159D01*
X38756358Y-85381643D01*
X38686666Y-85376659D01*
X38642320Y-85348160D01*
X38642319Y-85348159D01*
X38611840Y-85317680D01*
X38578356Y-85256360D01*
X38583340Y-85186668D01*
X38611841Y-85142319D01*
X38718931Y-85035229D01*
X38871634Y-84825051D01*
X38956466Y-84658559D01*
X38979266Y-84627178D01*
X39517036Y-84089407D01*
X39534075Y-84152993D01*
G37*
%TD.AperFunction*%
%TA.AperFunction,Conductor*%
G36*
X38480732Y-69387178D02*
G01*
X38503536Y-69418564D01*
X38588368Y-69585054D01*
X38741066Y-69795225D01*
X38741071Y-69795231D01*
X38848159Y-69902319D01*
X38881644Y-69963642D01*
X38876660Y-70033334D01*
X38848159Y-70077681D01*
X38817681Y-70108159D01*
X38756358Y-70141644D01*
X38686666Y-70136660D01*
X38642319Y-70108159D01*
X38535231Y-70001071D01*
X38535225Y-70001066D01*
X38325054Y-69848368D01*
X38325053Y-69848367D01*
X38325051Y-69848366D01*
X38158564Y-69763536D01*
X38127178Y-69740732D01*
X37589409Y-69202962D01*
X37652993Y-69185925D01*
X37767007Y-69120099D01*
X37860099Y-69027007D01*
X37925925Y-68912993D01*
X37942962Y-68849408D01*
X38480732Y-69387178D01*
G37*
%TD.AperFunction*%
%TA.AperFunction,Conductor*%
G36*
X38773334Y-67303340D02*
G01*
X38817680Y-67331840D01*
X38848159Y-67362319D01*
X38848160Y-67362320D01*
X38881644Y-67423644D01*
X38876658Y-67493335D01*
X38848159Y-67537681D01*
X38741066Y-67644774D01*
X38588366Y-67854947D01*
X38503535Y-68021435D01*
X38480732Y-68052820D01*
X37942962Y-68590590D01*
X37925925Y-68527007D01*
X37860099Y-68412993D01*
X37767007Y-68319901D01*
X37652993Y-68254075D01*
X37589409Y-68237037D01*
X38127178Y-67699266D01*
X38158559Y-67676466D01*
X38325051Y-67591634D01*
X38535229Y-67438931D01*
X38642319Y-67331841D01*
X38703642Y-67298356D01*
X38773334Y-67303340D01*
G37*
%TD.AperFunction*%
%TA.AperFunction,Conductor*%
G36*
X39534075Y-63832993D02*
G01*
X39599901Y-63947007D01*
X39692993Y-64040099D01*
X39807007Y-64105925D01*
X39870590Y-64122962D01*
X39332820Y-64660732D01*
X39301435Y-64683535D01*
X39134947Y-64768366D01*
X38924774Y-64921066D01*
X38817681Y-65028159D01*
X38756358Y-65061643D01*
X38686666Y-65056659D01*
X38642320Y-65028160D01*
X38642319Y-65028159D01*
X38611840Y-64997680D01*
X38578356Y-64936360D01*
X38583340Y-64866668D01*
X38611841Y-64822319D01*
X38718931Y-64715229D01*
X38871634Y-64505051D01*
X38956466Y-64338559D01*
X38979266Y-64307178D01*
X39517037Y-63769408D01*
X39534075Y-63832993D01*
G37*
%TD.AperFunction*%
%TA.AperFunction,Conductor*%
G36*
X38773334Y-62223340D02*
G01*
X38817681Y-62251841D01*
X38924771Y-62358931D01*
X39134949Y-62511634D01*
X39301437Y-62596464D01*
X39332820Y-62619266D01*
X39870591Y-63157037D01*
X39807007Y-63174075D01*
X39692993Y-63239901D01*
X39599901Y-63332993D01*
X39534075Y-63447007D01*
X39517037Y-63510591D01*
X38979266Y-62972820D01*
X38956464Y-62941437D01*
X38871634Y-62774949D01*
X38718931Y-62564771D01*
X38611841Y-62457681D01*
X38578356Y-62396358D01*
X38583340Y-62326666D01*
X38611841Y-62282319D01*
X38642319Y-62251841D01*
X38703642Y-62218356D01*
X38773334Y-62223340D01*
G37*
%TD.AperFunction*%
%TA.AperFunction,Conductor*%
G36*
X38480732Y-59227178D02*
G01*
X38503536Y-59258564D01*
X38588368Y-59425054D01*
X38741066Y-59635225D01*
X38741071Y-59635231D01*
X38848159Y-59742319D01*
X38881644Y-59803642D01*
X38876660Y-59873334D01*
X38848159Y-59917681D01*
X38817681Y-59948159D01*
X38756358Y-59981644D01*
X38686666Y-59976660D01*
X38642319Y-59948159D01*
X38535231Y-59841071D01*
X38535225Y-59841066D01*
X38325054Y-59688368D01*
X38325053Y-59688367D01*
X38325051Y-59688366D01*
X38158564Y-59603536D01*
X38127178Y-59580732D01*
X37589409Y-59042962D01*
X37652993Y-59025925D01*
X37767007Y-58960099D01*
X37860099Y-58867007D01*
X37925925Y-58752993D01*
X37942962Y-58689408D01*
X38480732Y-59227178D01*
G37*
%TD.AperFunction*%
%TA.AperFunction,Conductor*%
G36*
X38773334Y-57143340D02*
G01*
X38817680Y-57171840D01*
X38848159Y-57202319D01*
X38848160Y-57202320D01*
X38881644Y-57263644D01*
X38876658Y-57333335D01*
X38848159Y-57377681D01*
X38741066Y-57484774D01*
X38588366Y-57694947D01*
X38503535Y-57861435D01*
X38480732Y-57892820D01*
X37942962Y-58430590D01*
X37925925Y-58367007D01*
X37860099Y-58252993D01*
X37767007Y-58159901D01*
X37652993Y-58094075D01*
X37589409Y-58077037D01*
X38127178Y-57539266D01*
X38158559Y-57516466D01*
X38325051Y-57431634D01*
X38535229Y-57278931D01*
X38642319Y-57171841D01*
X38703642Y-57138356D01*
X38773334Y-57143340D01*
G37*
%TD.AperFunction*%
%TA.AperFunction,Conductor*%
G36*
X71442539Y-45520185D02*
G01*
X71488294Y-45572989D01*
X71499500Y-45624500D01*
X71499500Y-99150885D01*
X71479815Y-99217924D01*
X71427011Y-99263679D01*
X71357853Y-99273623D01*
X71294297Y-99244598D01*
X71256523Y-99185820D01*
X71253027Y-99170283D01*
X71237699Y-99073506D01*
X71157416Y-98826423D01*
X71114626Y-98742445D01*
X71039473Y-98594949D01*
X70886770Y-98384771D01*
X70703068Y-98201069D01*
X70492890Y-98048366D01*
X70420603Y-98011534D01*
X70261415Y-97930422D01*
X70014332Y-97850140D01*
X69757741Y-97809500D01*
X69757736Y-97809500D01*
X69497942Y-97809500D01*
X69497937Y-97809500D01*
X69241345Y-97850140D01*
X68994262Y-97930422D01*
X68762784Y-98048368D01*
X68552613Y-98201066D01*
X68552607Y-98201071D01*
X68368910Y-98384768D01*
X68368905Y-98384774D01*
X68216207Y-98594945D01*
X68098261Y-98826423D01*
X68017979Y-99073506D01*
X67977339Y-99330097D01*
X67977339Y-99589902D01*
X68017979Y-99846493D01*
X68098261Y-100093576D01*
X68179373Y-100252764D01*
X68215333Y-100323340D01*
X68216207Y-100325054D01*
X68368905Y-100535225D01*
X68368910Y-100535231D01*
X68475998Y-100642319D01*
X68509483Y-100703642D01*
X68504499Y-100773334D01*
X68475998Y-100817681D01*
X68368910Y-100924768D01*
X68368905Y-100924774D01*
X68216207Y-101134945D01*
X68098261Y-101366423D01*
X68017979Y-101613506D01*
X67977339Y-101870097D01*
X67977339Y-102129902D01*
X68017979Y-102386493D01*
X68098261Y-102633576D01*
X68179373Y-102792764D01*
X68211221Y-102855270D01*
X68216207Y-102865054D01*
X68368905Y-103075225D01*
X68368910Y-103075231D01*
X68437178Y-103143499D01*
X68470663Y-103204822D01*
X68465679Y-103274514D01*
X68426814Y-103326433D01*
X68426921Y-103326540D01*
X68426178Y-103327282D01*
X68423812Y-103330444D01*
X68420648Y-103332812D01*
X68334488Y-103447906D01*
X68334484Y-103447913D01*
X68284242Y-103582620D01*
X68284240Y-103582627D01*
X68277839Y-103642155D01*
X68277839Y-104290000D01*
X69194827Y-104290000D01*
X69161914Y-104347007D01*
X69127839Y-104474174D01*
X69127839Y-104605826D01*
X69161914Y-104732993D01*
X69194827Y-104790000D01*
X68277839Y-104790000D01*
X68277839Y-105437844D01*
X68284240Y-105497372D01*
X68284242Y-105497379D01*
X68334484Y-105632086D01*
X68334488Y-105632093D01*
X68420648Y-105747187D01*
X68420651Y-105747190D01*
X68535745Y-105833350D01*
X68535752Y-105833354D01*
X68670459Y-105883596D01*
X68670466Y-105883598D01*
X68729994Y-105889999D01*
X68730011Y-105890000D01*
X69377839Y-105890000D01*
X69377839Y-104973012D01*
X69434846Y-105005925D01*
X69562013Y-105040000D01*
X69693665Y-105040000D01*
X69820832Y-105005925D01*
X69877839Y-104973012D01*
X69877839Y-105890000D01*
X70525667Y-105890000D01*
X70525683Y-105889999D01*
X70585211Y-105883598D01*
X70585218Y-105883596D01*
X70719925Y-105833354D01*
X70719932Y-105833350D01*
X70835026Y-105747190D01*
X70835029Y-105747187D01*
X70921189Y-105632093D01*
X70921193Y-105632086D01*
X70971435Y-105497379D01*
X70971437Y-105497372D01*
X70977838Y-105437844D01*
X70977839Y-105437827D01*
X70977839Y-104790000D01*
X70060851Y-104790000D01*
X70093764Y-104732993D01*
X70127839Y-104605826D01*
X70127839Y-104474174D01*
X70093764Y-104347007D01*
X70060851Y-104290000D01*
X70977839Y-104290000D01*
X70977839Y-103642172D01*
X70977838Y-103642155D01*
X70971437Y-103582627D01*
X70971435Y-103582620D01*
X70921193Y-103447913D01*
X70921189Y-103447906D01*
X70835029Y-103332812D01*
X70835028Y-103332811D01*
X70831870Y-103330447D01*
X70829505Y-103327288D01*
X70828757Y-103326540D01*
X70828864Y-103326432D01*
X70789998Y-103274514D01*
X70785014Y-103204822D01*
X70818497Y-103143501D01*
X70886770Y-103075229D01*
X71039473Y-102865051D01*
X71157418Y-102633572D01*
X71237699Y-102386493D01*
X71253027Y-102289716D01*
X71282956Y-102226581D01*
X71342268Y-102189650D01*
X71412130Y-102190648D01*
X71470363Y-102229258D01*
X71498477Y-102293221D01*
X71499500Y-102309114D01*
X71499500Y-109375500D01*
X71479815Y-109442539D01*
X71427011Y-109488294D01*
X71375500Y-109499500D01*
X35624500Y-109499500D01*
X35557461Y-109479815D01*
X35511706Y-109427011D01*
X35500500Y-109375500D01*
X35500500Y-53350097D01*
X35809500Y-53350097D01*
X35809500Y-53609902D01*
X35850140Y-53866493D01*
X35930422Y-54113576D01*
X36048368Y-54345054D01*
X36201066Y-54555225D01*
X36201071Y-54555231D01*
X36308159Y-54662319D01*
X36341644Y-54723642D01*
X36336660Y-54793334D01*
X36308159Y-54837681D01*
X36201071Y-54944768D01*
X36201066Y-54944774D01*
X36048368Y-55154945D01*
X35930422Y-55386423D01*
X35850140Y-55633506D01*
X35809500Y-55890097D01*
X35809500Y-56149902D01*
X35850140Y-56406493D01*
X35930422Y-56653576D01*
X36011534Y-56812764D01*
X36048366Y-56885051D01*
X36201069Y-57095229D01*
X36384771Y-57278931D01*
X36594949Y-57431634D01*
X36761437Y-57516464D01*
X36792820Y-57539266D01*
X37330591Y-58077037D01*
X37267007Y-58094075D01*
X37152993Y-58159901D01*
X37059901Y-58252993D01*
X36994075Y-58367007D01*
X36977037Y-58430591D01*
X36344728Y-57798282D01*
X36344727Y-57798282D01*
X36305380Y-57852439D01*
X36208904Y-58041782D01*
X36143242Y-58243869D01*
X36143242Y-58243872D01*
X36110000Y-58453753D01*
X36110000Y-58666246D01*
X36143242Y-58876127D01*
X36143242Y-58876130D01*
X36208904Y-59078217D01*
X36305375Y-59267550D01*
X36344728Y-59321716D01*
X36977037Y-58689408D01*
X36994075Y-58752993D01*
X37059901Y-58867007D01*
X37152993Y-58960099D01*
X37267007Y-59025925D01*
X37330590Y-59042962D01*
X36792820Y-59580732D01*
X36761435Y-59603535D01*
X36594947Y-59688366D01*
X36384774Y-59841066D01*
X36384768Y-59841071D01*
X36201071Y-60024768D01*
X36201066Y-60024774D01*
X36048368Y-60234945D01*
X35930422Y-60466423D01*
X35850140Y-60713506D01*
X35809500Y-60970097D01*
X35809500Y-61229902D01*
X35850140Y-61486493D01*
X35930422Y-61733576D01*
X36048368Y-61965054D01*
X36201066Y-62175225D01*
X36201071Y-62175231D01*
X36308159Y-62282319D01*
X36341644Y-62343642D01*
X36336660Y-62413334D01*
X36308159Y-62457681D01*
X36201071Y-62564768D01*
X36201066Y-62564774D01*
X36048368Y-62774945D01*
X35930422Y-63006423D01*
X35850140Y-63253506D01*
X35809500Y-63510097D01*
X35809500Y-63769902D01*
X35850140Y-64026493D01*
X35930422Y-64273576D01*
X36048368Y-64505054D01*
X36201066Y-64715225D01*
X36201071Y-64715231D01*
X36308159Y-64822319D01*
X36341644Y-64883642D01*
X36336660Y-64953334D01*
X36308159Y-64997681D01*
X36201071Y-65104768D01*
X36201066Y-65104774D01*
X36048368Y-65314945D01*
X35930422Y-65546423D01*
X35850140Y-65793506D01*
X35809500Y-66050097D01*
X35809500Y-66309902D01*
X35850140Y-66566493D01*
X35930422Y-66813576D01*
X35952105Y-66856130D01*
X36045792Y-67040000D01*
X36048368Y-67045054D01*
X36189999Y-67239993D01*
X36201069Y-67255229D01*
X36384771Y-67438931D01*
X36594949Y-67591634D01*
X36761437Y-67676464D01*
X36792820Y-67699266D01*
X37330591Y-68237037D01*
X37267007Y-68254075D01*
X37152993Y-68319901D01*
X37059901Y-68412993D01*
X36994075Y-68527007D01*
X36977037Y-68590591D01*
X36344728Y-67958282D01*
X36344727Y-67958282D01*
X36305380Y-68012439D01*
X36208904Y-68201782D01*
X36143242Y-68403869D01*
X36143242Y-68403872D01*
X36110000Y-68613753D01*
X36110000Y-68826246D01*
X36143242Y-69036127D01*
X36143242Y-69036130D01*
X36208904Y-69238217D01*
X36305375Y-69427550D01*
X36344728Y-69481716D01*
X36977037Y-68849408D01*
X36994075Y-68912993D01*
X37059901Y-69027007D01*
X37152993Y-69120099D01*
X37267007Y-69185925D01*
X37330590Y-69202962D01*
X36792820Y-69740732D01*
X36761435Y-69763535D01*
X36594947Y-69848366D01*
X36384774Y-70001066D01*
X36384768Y-70001071D01*
X36201071Y-70184768D01*
X36201066Y-70184774D01*
X36048368Y-70394945D01*
X35930422Y-70626423D01*
X35850140Y-70873506D01*
X35809500Y-71130097D01*
X35809500Y-71389902D01*
X35850140Y-71646493D01*
X35930422Y-71893576D01*
X35945523Y-71923212D01*
X36024165Y-72077555D01*
X36048368Y-72125054D01*
X36201066Y-72335225D01*
X36201071Y-72335231D01*
X36308159Y-72442319D01*
X36341644Y-72503642D01*
X36336660Y-72573334D01*
X36308159Y-72617681D01*
X36201071Y-72724768D01*
X36201066Y-72724774D01*
X36048368Y-72934945D01*
X35930422Y-73166423D01*
X35850140Y-73413506D01*
X35809500Y-73670097D01*
X35809500Y-73929902D01*
X35850140Y-74186493D01*
X35930422Y-74433576D01*
X35970927Y-74513070D01*
X36045792Y-74660000D01*
X36048368Y-74665054D01*
X36182922Y-74850252D01*
X36201069Y-74875229D01*
X36384771Y-75058931D01*
X36594949Y-75211634D01*
X36761437Y-75296464D01*
X36792820Y-75319266D01*
X37330591Y-75857037D01*
X37267007Y-75874075D01*
X37152993Y-75939901D01*
X37059901Y-76032993D01*
X36994075Y-76147007D01*
X36977037Y-76210591D01*
X36344728Y-75578282D01*
X36344727Y-75578282D01*
X36305380Y-75632439D01*
X36208904Y-75821782D01*
X36143242Y-76023869D01*
X36143242Y-76023872D01*
X36110000Y-76233753D01*
X36110000Y-76446246D01*
X36143242Y-76656127D01*
X36143242Y-76656130D01*
X36208904Y-76858217D01*
X36305375Y-77047550D01*
X36344728Y-77101716D01*
X36977037Y-76469408D01*
X36994075Y-76532993D01*
X37059901Y-76647007D01*
X37152993Y-76740099D01*
X37267007Y-76805925D01*
X37330589Y-76822962D01*
X36792820Y-77360732D01*
X36761435Y-77383535D01*
X36594947Y-77468366D01*
X36384774Y-77621066D01*
X36384768Y-77621071D01*
X36201071Y-77804768D01*
X36201066Y-77804774D01*
X36048368Y-78014945D01*
X35930422Y-78246423D01*
X35850140Y-78493506D01*
X35809500Y-78750097D01*
X35809500Y-79009902D01*
X35850140Y-79266493D01*
X35930422Y-79513576D01*
X36048368Y-79745054D01*
X36201066Y-79955225D01*
X36201071Y-79955231D01*
X36308159Y-80062319D01*
X36341644Y-80123642D01*
X36336660Y-80193334D01*
X36308159Y-80237681D01*
X36201071Y-80344768D01*
X36201066Y-80344774D01*
X36048368Y-80554945D01*
X35930422Y-80786423D01*
X35850140Y-81033506D01*
X35809500Y-81290097D01*
X35809500Y-81549902D01*
X35850140Y-81806493D01*
X35930422Y-82053576D01*
X36048368Y-82285054D01*
X36201066Y-82495225D01*
X36201071Y-82495231D01*
X36308159Y-82602319D01*
X36341644Y-82663642D01*
X36336660Y-82733334D01*
X36308159Y-82777681D01*
X36201071Y-82884768D01*
X36201066Y-82884774D01*
X36048368Y-83094945D01*
X35930422Y-83326423D01*
X35850140Y-83573506D01*
X35809500Y-83830097D01*
X35809500Y-84089902D01*
X35850140Y-84346493D01*
X35930422Y-84593576D01*
X36048368Y-84825054D01*
X36201066Y-85035225D01*
X36201071Y-85035231D01*
X36308159Y-85142319D01*
X36341644Y-85203642D01*
X36336660Y-85273334D01*
X36308159Y-85317681D01*
X36201071Y-85424768D01*
X36201066Y-85424774D01*
X36048368Y-85634945D01*
X35930422Y-85866423D01*
X35850140Y-86113506D01*
X35809500Y-86370097D01*
X35809500Y-86629902D01*
X35850140Y-86886493D01*
X35930422Y-87133576D01*
X36011534Y-87292764D01*
X36048366Y-87365051D01*
X36201069Y-87575229D01*
X36384771Y-87758931D01*
X36594949Y-87911634D01*
X36761437Y-87996464D01*
X36792820Y-88019266D01*
X37330591Y-88557037D01*
X37267007Y-88574075D01*
X37152993Y-88639901D01*
X37059901Y-88732993D01*
X36994075Y-88847007D01*
X36977037Y-88910591D01*
X36344728Y-88278282D01*
X36344727Y-88278282D01*
X36305380Y-88332439D01*
X36208904Y-88521782D01*
X36143242Y-88723869D01*
X36143242Y-88723872D01*
X36110000Y-88933753D01*
X36110000Y-89146246D01*
X36143242Y-89356127D01*
X36143242Y-89356130D01*
X36208904Y-89558217D01*
X36305375Y-89747550D01*
X36344728Y-89801716D01*
X36977037Y-89169408D01*
X36994075Y-89232993D01*
X37059901Y-89347007D01*
X37152993Y-89440099D01*
X37267007Y-89505925D01*
X37330590Y-89522962D01*
X36792820Y-90060732D01*
X36761435Y-90083535D01*
X36594947Y-90168366D01*
X36384774Y-90321066D01*
X36384768Y-90321071D01*
X36201071Y-90504768D01*
X36201066Y-90504774D01*
X36048368Y-90714945D01*
X35930422Y-90946423D01*
X35850140Y-91193506D01*
X35809500Y-91450097D01*
X35809500Y-91709902D01*
X35850140Y-91966493D01*
X35930422Y-92213576D01*
X36011534Y-92372764D01*
X36048366Y-92445051D01*
X36201069Y-92655229D01*
X36384771Y-92838931D01*
X36594949Y-92991634D01*
X36761437Y-93076464D01*
X36792820Y-93099266D01*
X37330591Y-93637037D01*
X37267007Y-93654075D01*
X37152993Y-93719901D01*
X37059901Y-93812993D01*
X36994075Y-93927007D01*
X36977037Y-93990591D01*
X36344728Y-93358282D01*
X36344727Y-93358282D01*
X36305380Y-93412439D01*
X36208904Y-93601782D01*
X36143242Y-93803869D01*
X36143242Y-93803872D01*
X36110000Y-94013753D01*
X36110000Y-94226246D01*
X36143242Y-94436127D01*
X36143242Y-94436130D01*
X36208904Y-94638217D01*
X36305375Y-94827550D01*
X36344728Y-94881716D01*
X36977037Y-94249408D01*
X36994075Y-94312993D01*
X37059901Y-94427007D01*
X37152993Y-94520099D01*
X37267007Y-94585925D01*
X37330590Y-94602962D01*
X36792820Y-95140732D01*
X36761435Y-95163535D01*
X36594947Y-95248366D01*
X36384774Y-95401066D01*
X36384768Y-95401071D01*
X36201071Y-95584768D01*
X36201066Y-95584774D01*
X36048368Y-95794945D01*
X35930422Y-96026423D01*
X35850140Y-96273506D01*
X35809500Y-96530097D01*
X35809500Y-96789902D01*
X35850140Y-97046493D01*
X35930422Y-97293576D01*
X36048368Y-97525054D01*
X36201066Y-97735225D01*
X36201071Y-97735231D01*
X36308159Y-97842319D01*
X36341644Y-97903642D01*
X36336660Y-97973334D01*
X36308159Y-98017681D01*
X36201071Y-98124768D01*
X36201066Y-98124774D01*
X36048368Y-98334945D01*
X35930422Y-98566423D01*
X35850140Y-98813506D01*
X35809500Y-99070097D01*
X35809500Y-99329902D01*
X35850140Y-99586493D01*
X35930422Y-99833576D01*
X36048368Y-100065054D01*
X36201066Y-100275225D01*
X36201071Y-100275231D01*
X36308159Y-100382319D01*
X36341644Y-100443642D01*
X36336660Y-100513334D01*
X36308159Y-100557681D01*
X36201071Y-100664768D01*
X36201066Y-100664774D01*
X36048368Y-100874945D01*
X35930422Y-101106423D01*
X35850140Y-101353506D01*
X35809500Y-101610097D01*
X35809500Y-101869902D01*
X35850140Y-102126493D01*
X35930422Y-102373576D01*
X36048368Y-102605054D01*
X36142870Y-102735125D01*
X36201069Y-102815229D01*
X36384771Y-102998931D01*
X36594949Y-103151634D01*
X36699336Y-103204822D01*
X36826423Y-103269577D01*
X36826425Y-103269577D01*
X36826428Y-103269579D01*
X37073507Y-103349860D01*
X37205706Y-103370797D01*
X37330098Y-103390500D01*
X37330103Y-103390500D01*
X37589902Y-103390500D01*
X37703298Y-103372539D01*
X37846493Y-103349860D01*
X38093572Y-103269579D01*
X38325051Y-103151634D01*
X38535229Y-102998931D01*
X38718931Y-102815229D01*
X38871634Y-102605051D01*
X38956466Y-102438559D01*
X38979266Y-102407178D01*
X39517037Y-101869408D01*
X39534075Y-101932993D01*
X39599901Y-102047007D01*
X39692993Y-102140099D01*
X39807007Y-102205925D01*
X39870590Y-102222962D01*
X39238282Y-102855269D01*
X39238282Y-102855270D01*
X39292449Y-102894624D01*
X39481782Y-102991095D01*
X39683870Y-103056757D01*
X39893754Y-103090000D01*
X40106246Y-103090000D01*
X40316127Y-103056757D01*
X40316130Y-103056757D01*
X40518217Y-102991095D01*
X40707554Y-102894622D01*
X40761716Y-102855270D01*
X40761717Y-102855270D01*
X40129408Y-102222962D01*
X40192993Y-102205925D01*
X40307007Y-102140099D01*
X40400099Y-102047007D01*
X40465925Y-101932993D01*
X40482962Y-101869409D01*
X41115270Y-102501717D01*
X41115270Y-102501716D01*
X41154622Y-102447554D01*
X41251095Y-102258217D01*
X41316757Y-102056130D01*
X41316757Y-102056127D01*
X41350000Y-101846246D01*
X41350000Y-101633753D01*
X41316757Y-101423872D01*
X41316757Y-101423869D01*
X41251095Y-101221782D01*
X41154624Y-101032449D01*
X41115270Y-100978282D01*
X41115269Y-100978282D01*
X40482962Y-101610590D01*
X40465925Y-101547007D01*
X40400099Y-101432993D01*
X40307007Y-101339901D01*
X40192993Y-101274075D01*
X40129409Y-101257037D01*
X40667178Y-100719266D01*
X40698559Y-100696466D01*
X40865051Y-100611634D01*
X41075229Y-100458931D01*
X41258931Y-100275229D01*
X41411634Y-100065051D01*
X41529579Y-99833572D01*
X41609860Y-99586493D01*
X41632539Y-99443298D01*
X41650500Y-99329902D01*
X41650500Y-99070097D01*
X41611906Y-98826428D01*
X41609860Y-98813507D01*
X41529579Y-98566428D01*
X41529577Y-98566425D01*
X41529577Y-98566423D01*
X41437021Y-98384774D01*
X41411634Y-98334949D01*
X41258931Y-98124771D01*
X41151841Y-98017681D01*
X41118356Y-97956358D01*
X41123340Y-97886666D01*
X41151841Y-97842319D01*
X41184660Y-97809500D01*
X41258931Y-97735229D01*
X41411634Y-97525051D01*
X41529579Y-97293572D01*
X41609860Y-97046493D01*
X41632539Y-96903298D01*
X41650500Y-96789902D01*
X41650500Y-96530097D01*
X41628947Y-96394021D01*
X41609860Y-96273507D01*
X41529579Y-96026428D01*
X41529577Y-96026425D01*
X41529577Y-96026423D01*
X41486787Y-95942445D01*
X41411634Y-95794949D01*
X41258931Y-95584771D01*
X41151841Y-95477681D01*
X41118356Y-95416358D01*
X41123340Y-95346666D01*
X41151841Y-95302319D01*
X41258931Y-95195229D01*
X41411634Y-94985051D01*
X41529579Y-94753572D01*
X41609860Y-94506493D01*
X41640507Y-94312993D01*
X41650500Y-94249902D01*
X41650500Y-93990097D01*
X41621004Y-93803869D01*
X41609860Y-93733507D01*
X41529579Y-93486428D01*
X41529577Y-93486425D01*
X41529577Y-93486423D01*
X41464285Y-93358282D01*
X41411634Y-93254949D01*
X41258931Y-93044771D01*
X41151841Y-92937681D01*
X41118356Y-92876358D01*
X41123340Y-92806666D01*
X41151841Y-92762319D01*
X41182319Y-92731841D01*
X41258931Y-92655229D01*
X41411634Y-92445051D01*
X41529579Y-92213572D01*
X41609860Y-91966493D01*
X41632539Y-91823298D01*
X41650500Y-91709902D01*
X41650500Y-91450097D01*
X41628947Y-91314021D01*
X41609860Y-91193507D01*
X41529579Y-90946428D01*
X41529577Y-90946425D01*
X41529577Y-90946423D01*
X41486787Y-90862445D01*
X41411634Y-90714949D01*
X41258931Y-90504771D01*
X41151841Y-90397681D01*
X41118356Y-90336358D01*
X41123340Y-90266666D01*
X41151841Y-90222319D01*
X41258931Y-90115229D01*
X41411634Y-89905051D01*
X41529579Y-89673572D01*
X41609860Y-89426493D01*
X41640507Y-89232993D01*
X41650500Y-89169902D01*
X41650500Y-88910097D01*
X41621004Y-88723869D01*
X41609860Y-88653507D01*
X41529579Y-88406428D01*
X41529577Y-88406425D01*
X41529577Y-88406423D01*
X41464285Y-88278282D01*
X41411634Y-88174949D01*
X41258931Y-87964771D01*
X41151841Y-87857681D01*
X41118356Y-87796358D01*
X41123340Y-87726666D01*
X41151841Y-87682319D01*
X41182319Y-87651841D01*
X41258931Y-87575229D01*
X41411634Y-87365051D01*
X41529579Y-87133572D01*
X41609860Y-86886493D01*
X41632539Y-86743298D01*
X41650500Y-86629902D01*
X41650500Y-86370097D01*
X41628947Y-86234021D01*
X41609860Y-86113507D01*
X41529579Y-85866428D01*
X41529577Y-85866425D01*
X41529577Y-85866423D01*
X41473038Y-85755461D01*
X41411634Y-85634949D01*
X41258931Y-85424771D01*
X41075229Y-85241069D01*
X40865051Y-85088366D01*
X40698564Y-85003536D01*
X40667178Y-84980732D01*
X40129409Y-84442962D01*
X40192993Y-84425925D01*
X40307007Y-84360099D01*
X40400099Y-84267007D01*
X40465925Y-84152993D01*
X40482962Y-84089409D01*
X41115270Y-84721717D01*
X41115270Y-84721716D01*
X41154622Y-84667554D01*
X41251095Y-84478217D01*
X41316757Y-84276130D01*
X41316757Y-84276127D01*
X41350000Y-84066246D01*
X41350000Y-83853754D01*
X41329092Y-83721749D01*
X41338046Y-83652456D01*
X41383042Y-83599004D01*
X41449794Y-83578364D01*
X41451565Y-83578351D01*
X47160842Y-83578351D01*
X47160843Y-83578350D01*
X47334815Y-83543746D01*
X47416755Y-83509804D01*
X47498696Y-83475864D01*
X47498698Y-83475862D01*
X47498701Y-83475861D01*
X47587104Y-83416790D01*
X47587104Y-83416789D01*
X47587108Y-83416787D01*
X47646185Y-83377315D01*
X49449464Y-81574035D01*
X49548013Y-81426547D01*
X49571789Y-81369146D01*
X49615895Y-81262666D01*
X49650500Y-81088691D01*
X49650500Y-80911308D01*
X49650500Y-80423140D01*
X49670185Y-80356101D01*
X49674164Y-80350279D01*
X49691232Y-80326788D01*
X49769873Y-80172445D01*
X49823402Y-80007701D01*
X49850500Y-79836611D01*
X49850500Y-79663389D01*
X49823402Y-79492299D01*
X49769873Y-79327555D01*
X49691232Y-79173212D01*
X49589414Y-79033072D01*
X49466928Y-78910586D01*
X49326788Y-78808768D01*
X49172445Y-78730127D01*
X49007701Y-78676598D01*
X49007699Y-78676597D01*
X49007698Y-78676597D01*
X48876271Y-78655781D01*
X48836611Y-78649500D01*
X48663389Y-78649500D01*
X48623728Y-78655781D01*
X48492302Y-78676597D01*
X48327552Y-78730128D01*
X48173211Y-78808768D01*
X48111634Y-78853507D01*
X48033072Y-78910586D01*
X48033070Y-78910588D01*
X48033069Y-78910588D01*
X47910588Y-79033069D01*
X47910588Y-79033070D01*
X47910586Y-79033072D01*
X47880389Y-79074635D01*
X47808768Y-79173211D01*
X47730128Y-79327552D01*
X47676597Y-79492302D01*
X47649500Y-79663389D01*
X47649500Y-79836610D01*
X47674918Y-79997099D01*
X47676598Y-80007701D01*
X47730127Y-80172445D01*
X47808768Y-80326788D01*
X47825818Y-80350255D01*
X47849298Y-80416058D01*
X47849500Y-80423140D01*
X47849500Y-80575638D01*
X47829815Y-80642677D01*
X47813181Y-80663319D01*
X46735468Y-81741032D01*
X46674145Y-81774517D01*
X46647787Y-81777351D01*
X41759661Y-81777351D01*
X41692622Y-81757666D01*
X41646867Y-81704862D01*
X41636923Y-81635704D01*
X41637188Y-81633954D01*
X41650499Y-81549902D01*
X41650500Y-81549902D01*
X41650500Y-81290098D01*
X41634840Y-81191231D01*
X41626597Y-81139186D01*
X41635551Y-81069895D01*
X41661386Y-81032112D01*
X42771034Y-79922463D01*
X42832355Y-79888980D01*
X42902047Y-79893964D01*
X42957980Y-79935836D01*
X42961809Y-79941247D01*
X42971153Y-79955231D01*
X42999128Y-79997097D01*
X42999128Y-79997098D01*
X43050537Y-80074038D01*
X43050540Y-80074041D01*
X43387267Y-80410767D01*
X43420752Y-80472090D01*
X43422059Y-80479047D01*
X43426597Y-80507699D01*
X43441950Y-80554949D01*
X43480127Y-80672445D01*
X43558768Y-80826788D01*
X43660586Y-80966928D01*
X43783072Y-81089414D01*
X43923212Y-81191232D01*
X44077555Y-81269873D01*
X44242299Y-81323402D01*
X44413389Y-81350500D01*
X44413390Y-81350500D01*
X44586610Y-81350500D01*
X44586611Y-81350500D01*
X44757701Y-81323402D01*
X44922445Y-81269873D01*
X45076788Y-81191232D01*
X45216928Y-81089414D01*
X45339414Y-80966928D01*
X45441232Y-80826788D01*
X45519873Y-80672445D01*
X45573402Y-80507701D01*
X45600500Y-80336611D01*
X45600500Y-80163389D01*
X45573402Y-79992299D01*
X45519873Y-79827555D01*
X45441232Y-79673212D01*
X45339414Y-79533072D01*
X45216928Y-79410586D01*
X45076788Y-79308768D01*
X44922445Y-79230127D01*
X44757701Y-79176598D01*
X44757699Y-79176597D01*
X44757697Y-79176597D01*
X44755101Y-79176186D01*
X44754192Y-79175755D01*
X44752959Y-79175459D01*
X44753021Y-79175200D01*
X44691967Y-79146256D01*
X44655036Y-79086944D01*
X44650500Y-79053713D01*
X44650500Y-78321516D01*
X53245587Y-78321516D01*
X53245587Y-78494738D01*
X53272685Y-78665828D01*
X53319129Y-78808768D01*
X53326215Y-78830574D01*
X53404855Y-78984915D01*
X53435966Y-79027735D01*
X53459446Y-79093541D01*
X53443621Y-79161595D01*
X53435970Y-79173501D01*
X53429315Y-79182660D01*
X53429310Y-79182669D01*
X53350669Y-79337011D01*
X53297138Y-79501761D01*
X53270041Y-79672848D01*
X53270041Y-79846069D01*
X53293961Y-79997099D01*
X53297139Y-80017160D01*
X53350668Y-80181904D01*
X53429309Y-80336247D01*
X53531127Y-80476387D01*
X53653613Y-80598873D01*
X53793753Y-80700691D01*
X53948096Y-80779332D01*
X53948098Y-80779333D01*
X54000477Y-80796352D01*
X54058153Y-80835789D01*
X54084632Y-80894885D01*
X54106367Y-81032109D01*
X54109646Y-81052812D01*
X54163175Y-81217556D01*
X54241816Y-81371899D01*
X54343634Y-81512039D01*
X54466120Y-81634525D01*
X54606260Y-81736343D01*
X54760603Y-81814984D01*
X54778140Y-81820682D01*
X54835817Y-81860117D01*
X54863017Y-81924475D01*
X54863826Y-81938614D01*
X54863826Y-84141089D01*
X54844141Y-84208128D01*
X54840144Y-84213975D01*
X54823096Y-84237437D01*
X54823095Y-84237440D01*
X54744454Y-84391782D01*
X54690923Y-84556532D01*
X54685057Y-84593572D01*
X54663826Y-84727619D01*
X54663826Y-84900841D01*
X54690924Y-85071931D01*
X54744453Y-85236675D01*
X54823094Y-85391018D01*
X54924912Y-85531158D01*
X55047398Y-85653644D01*
X55187538Y-85755462D01*
X55341881Y-85834103D01*
X55506625Y-85887632D01*
X55677715Y-85914730D01*
X55677716Y-85914730D01*
X55850936Y-85914730D01*
X55850937Y-85914730D01*
X56022027Y-85887632D01*
X56186771Y-85834103D01*
X56341114Y-85755462D01*
X56481254Y-85653644D01*
X56603740Y-85531158D01*
X56705558Y-85391018D01*
X56784199Y-85236675D01*
X56837728Y-85071931D01*
X56864826Y-84900841D01*
X56864826Y-84727619D01*
X56837728Y-84556529D01*
X56784199Y-84391785D01*
X56705558Y-84237442D01*
X56705555Y-84237438D01*
X56705555Y-84237437D01*
X56688508Y-84213975D01*
X56665028Y-84148169D01*
X56664826Y-84141089D01*
X56664826Y-81287696D01*
X56664825Y-81287692D01*
X56659847Y-81262666D01*
X56630221Y-81113723D01*
X56578269Y-80988302D01*
X56569417Y-80966930D01*
X56562342Y-80949848D01*
X56562340Y-80949844D01*
X56562339Y-80949842D01*
X56495533Y-80849860D01*
X56463790Y-80802353D01*
X56463788Y-80802351D01*
X56463786Y-80802348D01*
X56295779Y-80634342D01*
X56262294Y-80573019D01*
X56260992Y-80566088D01*
X56256450Y-80537410D01*
X56202921Y-80372666D01*
X56202919Y-80372663D01*
X56202919Y-80372661D01*
X56134143Y-80237681D01*
X56124280Y-80218323D01*
X56124277Y-80218319D01*
X56124277Y-80218318D01*
X56107230Y-80194856D01*
X56083750Y-80129050D01*
X56083548Y-80121970D01*
X56083548Y-78940136D01*
X56097063Y-78883841D01*
X56112519Y-78853507D01*
X56153821Y-78772447D01*
X56207350Y-78607703D01*
X56234448Y-78436613D01*
X56234448Y-78263391D01*
X56207350Y-78092301D01*
X56153821Y-77927557D01*
X56075180Y-77773214D01*
X55973362Y-77633074D01*
X55850876Y-77510588D01*
X55710736Y-77408770D01*
X55556393Y-77330129D01*
X55391649Y-77276600D01*
X55391647Y-77276599D01*
X55391646Y-77276599D01*
X55260219Y-77255783D01*
X55220559Y-77249502D01*
X55047337Y-77249502D01*
X55007676Y-77255783D01*
X54876250Y-77276599D01*
X54711505Y-77330128D01*
X54711497Y-77330131D01*
X54709811Y-77330991D01*
X54709101Y-77331124D01*
X54706999Y-77331995D01*
X54706816Y-77331553D01*
X54641141Y-77343883D01*
X54615201Y-77338433D01*
X54603790Y-77334725D01*
X54489728Y-77316659D01*
X54432698Y-77307627D01*
X54259476Y-77307627D01*
X54219815Y-77313908D01*
X54088389Y-77334724D01*
X54088386Y-77334725D01*
X53938166Y-77383535D01*
X53923639Y-77388255D01*
X53769298Y-77466895D01*
X53709161Y-77510588D01*
X53629159Y-77568713D01*
X53629157Y-77568715D01*
X53629156Y-77568715D01*
X53506675Y-77691196D01*
X53506675Y-77691197D01*
X53506673Y-77691199D01*
X53501964Y-77697681D01*
X53404855Y-77831338D01*
X53326215Y-77985679D01*
X53326214Y-77985681D01*
X53326214Y-77985682D01*
X53306290Y-78047000D01*
X53272684Y-78150429D01*
X53257480Y-78246425D01*
X53245587Y-78321516D01*
X44650500Y-78321516D01*
X44650500Y-74923140D01*
X44670185Y-74856101D01*
X44674164Y-74850279D01*
X44691232Y-74826788D01*
X44769873Y-74672445D01*
X44823402Y-74507701D01*
X44850500Y-74336611D01*
X44850500Y-74163389D01*
X44823402Y-73992299D01*
X44784765Y-73873389D01*
X47649500Y-73873389D01*
X47649500Y-74046610D01*
X47675103Y-74208266D01*
X47676598Y-74217701D01*
X47730127Y-74382445D01*
X47808768Y-74536788D01*
X47910586Y-74676928D01*
X48033072Y-74799414D01*
X48173212Y-74901232D01*
X48327555Y-74979873D01*
X48492299Y-75033402D01*
X48663389Y-75060500D01*
X48663390Y-75060500D01*
X48836610Y-75060500D01*
X48836611Y-75060500D01*
X49007701Y-75033402D01*
X49172445Y-74979873D01*
X49280266Y-74924935D01*
X49348933Y-74912040D01*
X49413673Y-74938316D01*
X49424240Y-74947740D01*
X50675960Y-76199461D01*
X50675964Y-76199464D01*
X50823446Y-76298009D01*
X50823452Y-76298012D01*
X50823453Y-76298013D01*
X50987334Y-76365895D01*
X51161303Y-76400499D01*
X51161307Y-76400500D01*
X51161308Y-76400500D01*
X51161309Y-76400500D01*
X58549142Y-76400500D01*
X58616181Y-76420185D01*
X58649458Y-76451612D01*
X58660586Y-76466928D01*
X58783072Y-76589414D01*
X58923212Y-76691232D01*
X59077555Y-76769873D01*
X59242299Y-76823402D01*
X59413389Y-76850500D01*
X59413390Y-76850500D01*
X59586610Y-76850500D01*
X59586611Y-76850500D01*
X59757701Y-76823402D01*
X59922445Y-76769873D01*
X60076788Y-76691232D01*
X60216928Y-76589414D01*
X60339414Y-76466928D01*
X60441232Y-76326788D01*
X60519873Y-76172445D01*
X60573402Y-76007701D01*
X60600500Y-75836611D01*
X60600500Y-75663389D01*
X60573402Y-75492299D01*
X60519873Y-75327555D01*
X60441232Y-75173212D01*
X60339414Y-75033072D01*
X60216928Y-74910586D01*
X60076788Y-74808768D01*
X59922445Y-74730127D01*
X59757701Y-74676598D01*
X59757699Y-74676597D01*
X59757698Y-74676597D01*
X59626271Y-74655781D01*
X59586611Y-74649500D01*
X59586610Y-74649500D01*
X59574498Y-74649500D01*
X59527046Y-74640061D01*
X59512670Y-74634106D01*
X59512658Y-74634103D01*
X59338696Y-74599500D01*
X59338692Y-74599500D01*
X59338691Y-74599500D01*
X51674362Y-74599500D01*
X51607323Y-74579815D01*
X51586681Y-74563181D01*
X51160062Y-74136562D01*
X50284041Y-73260540D01*
X50284038Y-73260537D01*
X50218770Y-73216927D01*
X50136544Y-73161985D01*
X50136542Y-73161984D01*
X50054607Y-73128046D01*
X50054606Y-73128046D01*
X49972666Y-73094105D01*
X49972658Y-73094103D01*
X49798696Y-73059500D01*
X49798692Y-73059500D01*
X49798691Y-73059500D01*
X49423141Y-73059500D01*
X49356102Y-73039815D01*
X49350255Y-73035818D01*
X49326792Y-73018770D01*
X49326789Y-73018769D01*
X49326790Y-73018769D01*
X49326788Y-73018768D01*
X49172445Y-72940127D01*
X49007701Y-72886598D01*
X49007699Y-72886597D01*
X49007698Y-72886597D01*
X48876271Y-72865781D01*
X48836611Y-72859500D01*
X48663389Y-72859500D01*
X48623728Y-72865781D01*
X48492302Y-72886597D01*
X48327552Y-72940128D01*
X48173211Y-73018768D01*
X48144243Y-73039815D01*
X48033072Y-73120586D01*
X48033070Y-73120588D01*
X48033069Y-73120588D01*
X47910588Y-73243069D01*
X47910588Y-73243070D01*
X47910586Y-73243072D01*
X47866859Y-73303256D01*
X47808768Y-73383211D01*
X47730128Y-73537552D01*
X47676597Y-73702302D01*
X47649500Y-73873389D01*
X44784765Y-73873389D01*
X44769873Y-73827555D01*
X44739408Y-73767765D01*
X44737349Y-73762642D01*
X44734487Y-73733142D01*
X44729017Y-73704011D01*
X44731152Y-73698750D01*
X44730604Y-73693098D01*
X44744147Y-73666731D01*
X44755293Y-73639270D01*
X44759933Y-73635998D01*
X44762528Y-73630948D01*
X44788175Y-73616090D01*
X44812400Y-73599013D01*
X44818567Y-73598483D01*
X44822985Y-73595924D01*
X44839496Y-73596685D01*
X44871794Y-73593912D01*
X44913389Y-73600500D01*
X44913390Y-73600500D01*
X45086610Y-73600500D01*
X45086611Y-73600500D01*
X45257701Y-73573402D01*
X45422445Y-73519873D01*
X45576788Y-73441232D01*
X45716928Y-73339414D01*
X45839414Y-73216928D01*
X45941232Y-73076788D01*
X46019873Y-72922445D01*
X46073402Y-72757701D01*
X46100500Y-72586611D01*
X46100500Y-72413389D01*
X46073402Y-72242299D01*
X46019873Y-72077555D01*
X45941232Y-71923212D01*
X45839414Y-71783072D01*
X45716928Y-71660586D01*
X45576788Y-71558768D01*
X45422445Y-71480127D01*
X45257701Y-71426598D01*
X45257699Y-71426597D01*
X45257698Y-71426597D01*
X45126271Y-71405781D01*
X45086611Y-71399500D01*
X44913389Y-71399500D01*
X44873728Y-71405781D01*
X44742302Y-71426597D01*
X44577552Y-71480128D01*
X44423210Y-71558769D01*
X44423207Y-71558770D01*
X44399745Y-71575818D01*
X44333939Y-71599298D01*
X44326859Y-71599500D01*
X41762488Y-71599500D01*
X41695449Y-71579815D01*
X41649694Y-71527011D01*
X41639750Y-71457853D01*
X41640015Y-71456102D01*
X41650500Y-71389902D01*
X41650500Y-71130097D01*
X41627744Y-70986423D01*
X41609860Y-70873507D01*
X41529579Y-70626428D01*
X41529577Y-70626425D01*
X41529577Y-70626423D01*
X41486787Y-70542445D01*
X41411634Y-70394949D01*
X41258931Y-70184771D01*
X41151841Y-70077681D01*
X41118356Y-70016358D01*
X41123340Y-69946666D01*
X41151841Y-69902319D01*
X41258931Y-69795229D01*
X41411634Y-69585051D01*
X41529579Y-69353572D01*
X41609860Y-69106493D01*
X41615077Y-69073554D01*
X41638474Y-68925833D01*
X41650500Y-68849902D01*
X41650500Y-68590097D01*
X41621004Y-68403869D01*
X41609860Y-68333507D01*
X41529579Y-68086428D01*
X41529577Y-68086425D01*
X41529577Y-68086423D01*
X41464285Y-67958282D01*
X41411634Y-67854949D01*
X41258931Y-67644771D01*
X41151841Y-67537681D01*
X41118356Y-67476358D01*
X41123340Y-67406666D01*
X41151841Y-67362319D01*
X41182319Y-67331841D01*
X41258931Y-67255229D01*
X41411634Y-67045051D01*
X41529579Y-66813572D01*
X41609860Y-66566493D01*
X41633471Y-66417418D01*
X41650500Y-66309902D01*
X41650500Y-66050097D01*
X41616027Y-65832446D01*
X41609860Y-65793507D01*
X41529579Y-65546428D01*
X41529577Y-65546425D01*
X41529577Y-65546423D01*
X41486787Y-65462445D01*
X41411634Y-65314949D01*
X41258931Y-65104771D01*
X41075229Y-64921069D01*
X41039293Y-64894960D01*
X40865054Y-64768368D01*
X40865053Y-64768367D01*
X40865051Y-64768366D01*
X40698564Y-64683536D01*
X40667178Y-64660732D01*
X40129409Y-64122962D01*
X40192993Y-64105925D01*
X40307007Y-64040099D01*
X40400099Y-63947007D01*
X40465925Y-63832993D01*
X40482962Y-63769408D01*
X41115270Y-64401717D01*
X41115270Y-64401716D01*
X41154622Y-64347554D01*
X41251095Y-64158217D01*
X41316757Y-63956130D01*
X41316757Y-63956127D01*
X41350000Y-63746246D01*
X41350000Y-63533753D01*
X41316757Y-63323872D01*
X41316757Y-63323869D01*
X41256977Y-63139885D01*
X41256976Y-63139883D01*
X41251094Y-63121780D01*
X41242564Y-63105039D01*
X67477339Y-63105039D01*
X67477339Y-64894960D01*
X67492469Y-65029249D01*
X67492470Y-65029254D01*
X67552050Y-65199523D01*
X67624575Y-65314945D01*
X67648023Y-65352262D01*
X67775577Y-65479816D01*
X67851947Y-65527802D01*
X67928318Y-65575790D01*
X67955437Y-65585279D01*
X68012214Y-65626000D01*
X68037962Y-65690953D01*
X68024506Y-65759514D01*
X68014803Y-65775206D01*
X67973215Y-65832446D01*
X67876743Y-66021782D01*
X67811081Y-66223869D01*
X67811081Y-66223872D01*
X67777839Y-66433753D01*
X67777839Y-66646246D01*
X67811081Y-66856127D01*
X67811081Y-66856130D01*
X67876743Y-67058217D01*
X67973214Y-67247550D01*
X68012567Y-67301716D01*
X68644875Y-66669407D01*
X68661914Y-66732993D01*
X68727740Y-66847007D01*
X68820832Y-66940099D01*
X68934846Y-67005925D01*
X68998429Y-67022962D01*
X68460659Y-67560732D01*
X68429274Y-67583535D01*
X68262786Y-67668366D01*
X68052613Y-67821066D01*
X68052607Y-67821071D01*
X67868910Y-68004768D01*
X67868905Y-68004774D01*
X67716207Y-68214945D01*
X67598261Y-68446423D01*
X67517979Y-68693506D01*
X67477339Y-68950097D01*
X67477339Y-69209902D01*
X67517979Y-69466493D01*
X67598261Y-69713576D01*
X67716207Y-69945054D01*
X67868905Y-70155225D01*
X67868910Y-70155231D01*
X67975998Y-70262319D01*
X68009483Y-70323642D01*
X68004499Y-70393334D01*
X67975998Y-70437681D01*
X67868910Y-70544768D01*
X67868905Y-70544774D01*
X67716207Y-70754945D01*
X67598261Y-70986423D01*
X67517979Y-71233506D01*
X67477339Y-71490097D01*
X67477339Y-71749902D01*
X67517979Y-72006493D01*
X67598261Y-72253576D01*
X67716207Y-72485054D01*
X67812566Y-72617681D01*
X67868908Y-72695229D01*
X68052610Y-72878931D01*
X68262788Y-73031634D01*
X68429276Y-73116464D01*
X68460659Y-73139266D01*
X68998430Y-73677037D01*
X68934846Y-73694075D01*
X68820832Y-73759901D01*
X68727740Y-73852993D01*
X68661914Y-73967007D01*
X68644876Y-74030591D01*
X68012567Y-73398282D01*
X68012566Y-73398282D01*
X67973219Y-73452439D01*
X67876743Y-73641782D01*
X67811081Y-73843869D01*
X67811081Y-73843872D01*
X67777839Y-74053753D01*
X67777839Y-74266246D01*
X67811081Y-74476127D01*
X67811081Y-74476130D01*
X67876743Y-74678217D01*
X67973214Y-74867550D01*
X68012567Y-74921716D01*
X68644876Y-74289408D01*
X68661914Y-74352993D01*
X68727740Y-74467007D01*
X68820832Y-74560099D01*
X68934846Y-74625925D01*
X68998429Y-74642962D01*
X68460659Y-75180732D01*
X68429274Y-75203535D01*
X68262786Y-75288366D01*
X68052613Y-75441066D01*
X68052607Y-75441071D01*
X67868910Y-75624768D01*
X67868905Y-75624774D01*
X67716207Y-75834945D01*
X67598261Y-76066423D01*
X67517979Y-76313506D01*
X67477339Y-76570097D01*
X67477339Y-76829902D01*
X67517979Y-77086493D01*
X67598261Y-77333576D01*
X67716207Y-77565054D01*
X67868905Y-77775225D01*
X67868910Y-77775231D01*
X67975998Y-77882319D01*
X68009483Y-77943642D01*
X68004499Y-78013334D01*
X67975998Y-78057681D01*
X67868910Y-78164768D01*
X67868905Y-78164774D01*
X67716207Y-78374945D01*
X67598261Y-78606423D01*
X67517979Y-78853506D01*
X67477339Y-79110097D01*
X67477339Y-79369902D01*
X67517979Y-79626493D01*
X67598261Y-79873576D01*
X67716207Y-80105054D01*
X67765171Y-80172447D01*
X67868908Y-80315229D01*
X68052610Y-80498931D01*
X68262788Y-80651634D01*
X68410284Y-80726787D01*
X68494262Y-80769577D01*
X68494264Y-80769577D01*
X68494267Y-80769579D01*
X68741346Y-80849860D01*
X68873545Y-80870797D01*
X68997937Y-80890500D01*
X68997942Y-80890500D01*
X69257741Y-80890500D01*
X69371137Y-80872539D01*
X69514332Y-80849860D01*
X69761411Y-80769579D01*
X69992890Y-80651634D01*
X70203068Y-80498931D01*
X70386770Y-80315229D01*
X70539473Y-80105051D01*
X70657418Y-79873572D01*
X70737699Y-79626493D01*
X70760378Y-79483298D01*
X70778339Y-79369902D01*
X70778339Y-79110097D01*
X70751419Y-78940136D01*
X70737699Y-78853507D01*
X70657418Y-78606428D01*
X70657416Y-78606425D01*
X70657416Y-78606423D01*
X70600508Y-78494737D01*
X70539473Y-78374949D01*
X70386770Y-78164771D01*
X70279680Y-78057681D01*
X70246195Y-77996358D01*
X70251179Y-77926666D01*
X70279680Y-77882319D01*
X70330661Y-77831338D01*
X70386770Y-77775229D01*
X70539473Y-77565051D01*
X70657418Y-77333572D01*
X70737699Y-77086493D01*
X70773854Y-76858217D01*
X70778339Y-76829902D01*
X70778339Y-76570097D01*
X70754595Y-76420185D01*
X70737699Y-76313507D01*
X70657418Y-76066428D01*
X70657416Y-76066425D01*
X70657416Y-76066423D01*
X70614626Y-75982445D01*
X70539473Y-75834949D01*
X70386770Y-75624771D01*
X70203068Y-75441069D01*
X70203064Y-75441066D01*
X69992893Y-75288368D01*
X69992892Y-75288367D01*
X69992890Y-75288366D01*
X69826403Y-75203536D01*
X69795017Y-75180732D01*
X69257248Y-74642962D01*
X69320832Y-74625925D01*
X69434846Y-74560099D01*
X69527938Y-74467007D01*
X69593764Y-74352993D01*
X69610801Y-74289408D01*
X70243109Y-74921717D01*
X70243109Y-74921716D01*
X70282461Y-74867554D01*
X70378934Y-74678217D01*
X70444596Y-74476130D01*
X70444596Y-74476127D01*
X70477839Y-74266246D01*
X70477839Y-74053753D01*
X70444596Y-73843872D01*
X70444596Y-73843869D01*
X70378934Y-73641782D01*
X70282463Y-73452449D01*
X70243109Y-73398282D01*
X70243108Y-73398282D01*
X69610801Y-74030590D01*
X69593764Y-73967007D01*
X69527938Y-73852993D01*
X69434846Y-73759901D01*
X69320832Y-73694075D01*
X69257248Y-73677037D01*
X69795017Y-73139266D01*
X69826398Y-73116466D01*
X69992890Y-73031634D01*
X70203068Y-72878931D01*
X70386770Y-72695229D01*
X70539473Y-72485051D01*
X70657418Y-72253572D01*
X70737699Y-72006493D01*
X70773085Y-71783072D01*
X70778339Y-71749902D01*
X70778339Y-71490097D01*
X70756786Y-71354021D01*
X70737699Y-71233507D01*
X70657418Y-70986428D01*
X70657416Y-70986425D01*
X70657416Y-70986423D01*
X70614626Y-70902445D01*
X70539473Y-70754949D01*
X70386770Y-70544771D01*
X70279680Y-70437681D01*
X70246195Y-70376358D01*
X70251179Y-70306666D01*
X70279680Y-70262319D01*
X70386770Y-70155229D01*
X70539473Y-69945051D01*
X70657418Y-69713572D01*
X70737699Y-69466493D01*
X70773854Y-69238217D01*
X70778339Y-69209902D01*
X70778339Y-68950097D01*
X70756786Y-68814021D01*
X70737699Y-68693507D01*
X70657418Y-68446428D01*
X70657416Y-68446425D01*
X70657416Y-68446423D01*
X70614626Y-68362445D01*
X70539473Y-68214949D01*
X70386770Y-68004771D01*
X70203068Y-67821069D01*
X70203064Y-67821066D01*
X69992893Y-67668368D01*
X69992892Y-67668367D01*
X69992890Y-67668366D01*
X69826403Y-67583536D01*
X69795017Y-67560732D01*
X69257248Y-67022962D01*
X69320832Y-67005925D01*
X69434846Y-66940099D01*
X69527938Y-66847007D01*
X69593764Y-66732993D01*
X69610801Y-66669409D01*
X70243109Y-67301717D01*
X70243109Y-67301716D01*
X70282461Y-67247554D01*
X70378934Y-67058217D01*
X70444596Y-66856130D01*
X70444596Y-66856127D01*
X70477839Y-66646246D01*
X70477839Y-66433753D01*
X70444596Y-66223872D01*
X70444596Y-66223869D01*
X70378934Y-66021782D01*
X70282461Y-65832445D01*
X70240875Y-65775207D01*
X70217395Y-65709401D01*
X70233220Y-65641347D01*
X70283326Y-65592652D01*
X70300241Y-65585279D01*
X70327358Y-65575790D01*
X70327357Y-65575790D01*
X70327361Y-65575789D01*
X70480101Y-65479816D01*
X70607655Y-65352262D01*
X70703628Y-65199522D01*
X70763207Y-65029255D01*
X70763331Y-65028160D01*
X70775396Y-64921071D01*
X70778339Y-64894954D01*
X70778339Y-63105046D01*
X70773404Y-63061246D01*
X70763208Y-62970750D01*
X70763207Y-62970745D01*
X70703627Y-62800476D01*
X70607654Y-62647737D01*
X70480101Y-62520184D01*
X70327362Y-62424211D01*
X70157093Y-62364631D01*
X70157088Y-62364630D01*
X70022799Y-62349500D01*
X70022793Y-62349500D01*
X68232885Y-62349500D01*
X68232878Y-62349500D01*
X68098589Y-62364630D01*
X68098584Y-62364631D01*
X67928315Y-62424211D01*
X67775576Y-62520184D01*
X67648023Y-62647737D01*
X67552050Y-62800476D01*
X67492470Y-62970745D01*
X67492469Y-62970750D01*
X67477339Y-63105039D01*
X41242564Y-63105039D01*
X41154624Y-62932449D01*
X41115270Y-62878282D01*
X41115269Y-62878282D01*
X40482962Y-63510590D01*
X40465925Y-63447007D01*
X40400099Y-63332993D01*
X40307007Y-63239901D01*
X40192993Y-63174075D01*
X40129409Y-63157037D01*
X40667178Y-62619266D01*
X40698559Y-62596466D01*
X40865051Y-62511634D01*
X41075229Y-62358931D01*
X41258931Y-62175229D01*
X41411634Y-61965051D01*
X41529579Y-61733572D01*
X41609860Y-61486493D01*
X41632539Y-61343298D01*
X41650500Y-61229902D01*
X41650500Y-60970097D01*
X41628947Y-60834021D01*
X41609860Y-60713507D01*
X41529579Y-60466428D01*
X41529577Y-60466425D01*
X41529577Y-60466423D01*
X41486787Y-60382445D01*
X41411634Y-60234949D01*
X41258931Y-60024771D01*
X41151841Y-59917681D01*
X41118356Y-59856358D01*
X41123340Y-59786666D01*
X41151841Y-59742319D01*
X41258931Y-59635229D01*
X41411634Y-59425051D01*
X41529579Y-59193572D01*
X41609860Y-58946493D01*
X41640507Y-58752993D01*
X41650500Y-58689902D01*
X41650500Y-58430097D01*
X41621004Y-58243869D01*
X41609860Y-58173507D01*
X41529579Y-57926428D01*
X41529577Y-57926425D01*
X41529577Y-57926423D01*
X41464285Y-57798282D01*
X41411634Y-57694949D01*
X41258931Y-57484771D01*
X41151841Y-57377681D01*
X41118356Y-57316358D01*
X41123340Y-57246666D01*
X41151841Y-57202319D01*
X41182319Y-57171841D01*
X41258931Y-57095229D01*
X41411634Y-56885051D01*
X41529579Y-56653572D01*
X41609860Y-56406493D01*
X41632539Y-56263298D01*
X41650500Y-56149902D01*
X41650500Y-55890097D01*
X41628947Y-55754021D01*
X41609860Y-55633507D01*
X41529579Y-55386428D01*
X41529577Y-55386425D01*
X41529577Y-55386423D01*
X41411633Y-55154948D01*
X41411631Y-55154945D01*
X41366785Y-55093220D01*
X41343306Y-55027416D01*
X41359131Y-54959362D01*
X41379423Y-54932655D01*
X41479816Y-54832262D01*
X41575789Y-54679522D01*
X41635368Y-54509255D01*
X41650500Y-54374954D01*
X41650500Y-52585046D01*
X41635368Y-52450745D01*
X41575789Y-52280478D01*
X41479816Y-52127738D01*
X41352262Y-52000184D01*
X41352260Y-52000183D01*
X41199523Y-51904211D01*
X41029254Y-51844631D01*
X41029249Y-51844630D01*
X40894960Y-51829500D01*
X40894954Y-51829500D01*
X39105046Y-51829500D01*
X39105039Y-51829500D01*
X38970750Y-51844630D01*
X38970745Y-51844631D01*
X38800476Y-51904211D01*
X38647739Y-52000183D01*
X38547345Y-52100577D01*
X38486022Y-52134061D01*
X38416330Y-52129077D01*
X38386779Y-52113213D01*
X38325054Y-52068368D01*
X38325053Y-52068367D01*
X38325051Y-52068366D01*
X38252764Y-52031534D01*
X38093576Y-51950422D01*
X37846493Y-51870140D01*
X37589902Y-51829500D01*
X37589897Y-51829500D01*
X37330103Y-51829500D01*
X37330098Y-51829500D01*
X37073506Y-51870140D01*
X36826423Y-51950422D01*
X36594945Y-52068368D01*
X36384774Y-52221066D01*
X36384768Y-52221071D01*
X36201071Y-52404768D01*
X36201066Y-52404774D01*
X36048368Y-52614945D01*
X35930422Y-52846423D01*
X35850140Y-53093506D01*
X35809500Y-53350097D01*
X35500500Y-53350097D01*
X35500500Y-45624500D01*
X35520185Y-45557461D01*
X35572989Y-45511706D01*
X35624500Y-45500500D01*
X71375500Y-45500500D01*
X71442539Y-45520185D01*
G37*
%TD.AperFunction*%
%TD*%
M02*
